<svg xmlns="http://www.w3.org/2000/svg" viewBox="0 0 123.78 141.7"><defs><style>.cls-1{fill:#231f20;}</style></defs><g id="Layer_2" data-name="Layer 2"><g id="Layer_1-2" data-name="Layer 1"><path class="cls-1" d="M37.32,0a8.36,8.36,0,0,0-8.27,6.93L25.48,26.36h31.9l-13.69,75.5H69.05c3.39,0,7.2-1.56,8.33-7.36L89,26.36h23a8.35,8.35,0,0,0,8.27-6.92L123.78,0ZM86.37,65.3c-2.86,16.54-5.17,29.91-5.18,29.94-1.27,6.48-5.75,10.34-12,10.34H39.38L51,41.44c-9.6-4.06-19-6.57-26.84-6.57-8.28,0-15,2.23-19.48,7.59A21.36,21.36,0,0,0,0,56.54c0,16.76,13.21,40,35.83,59C56,132.31,78.15,141.7,94.29,141.7c8.06,0,14.55-2.46,18.82-7.38,3.35-3.8,4.69-8.72,4.69-14.31C117.8,104.54,105.92,83.27,86.37,65.3Z"/></g></g></svg>