<svg xmlns="http://www.w3.org/2000/svg" viewBox="0 0 352.52 120.03"><defs><style>.cls-1{fill:#231f20;}</style></defs><g id="Layer_2" data-name="Layer 2"><g id="Layer_1-2" data-name="Layer 1"><path class="cls-1" d="M163.05,104a5.81,5.81,0,0,0,2.47-.73c1-.49,1-.77,1-.78s-.06-.18-.34-1a5.06,5.06,0,0,0-3.12,2.46"/><path class="cls-1" d="M223.33,94.29a1.73,1.73,0,0,0,.11-.56,1.66,1.66,0,0,0-.18-.64l-.13-.29a7.12,7.12,0,0,0-2.38,2.38,6.69,6.69,0,0,0-1.12,3.51l1.91-1.91a9.18,9.18,0,0,0,1.79-2.49"/><path class="cls-1" d="M271.09,93.76a3.52,3.52,0,0,0-3.47,3.35h7a3.47,3.47,0,0,0-3.5-3.35"/><path class="cls-1" d="M182.93,94.29a1.73,1.73,0,0,0,.11-.56,1.61,1.61,0,0,0-.18-.64c0-.11-.08-.2-.12-.29a7.05,7.05,0,0,0-2.39,2.38,6.69,6.69,0,0,0-1.12,3.51l1.91-1.91a9.18,9.18,0,0,0,1.79-2.49"/><path class="cls-1" d="M140,93.76a3.52,3.52,0,0,0-3.47,3.35h7a3.47,3.47,0,0,0-3.5-3.35"/><path class="cls-1" d="M347.9,71.19H4.62A4.63,4.63,0,0,0,0,75.8v39.62A4.63,4.63,0,0,0,4.62,120H347.9a4.63,4.63,0,0,0,4.62-4.61V75.8a4.63,4.63,0,0,0-4.62-4.61M110.22,94.31H109v10.1a2.2,2.2,0,1,1-4.38,0V94.31h-1a1.77,1.77,0,0,1-1.92-1.91,1.87,1.87,0,0,1,1.92-1.92h1V87.86a2.2,2.2,0,1,1,4.38,0v2.62h1.25a1.92,1.92,0,1,1,0,3.83m19.17,10.1a2.2,2.2,0,1,1-4.38,0V96.78a2.84,2.84,0,1,0-5.66,0v7.63a2.2,2.2,0,1,1-4.38,0V85.67a2.2,2.2,0,1,1,4.38,0v6h.06a5.22,5.22,0,0,1,4-1.53,5.61,5.61,0,0,1,6,5.91Zm11.38-1.21c2.25,0,3.8-1.77,5-1.77a1.94,1.94,0,0,1,1.79,1.89c0,1.88-3.89,3.71-7.15,3.71-4.92,0-8.21-3.59-8.21-8.43,0-4.44,3.23-8.49,7.85-8.49s7.88,4.32,7.88,8c0,1.31-.58,2-1.92,2h-9.34c.31,2.16,2.1,3.17,4.14,3.17m47.11-.94A17.91,17.91,0,0,1,185,105a8.77,8.77,0,0,1-5.37,1.75,4.2,4.2,0,0,1-3.17-1.08,3.7,3.7,0,0,1-.83-2.85,20,20,0,0,1,.85-4.68h-.41c-.13.09-.38.29-.76.59a2.43,2.43,0,0,1-1.14.51h-2.82c-.78.08-1.18.53-1.23,1.47-.13,2.29-1.06,3.87-2.77,4.69a11.24,11.24,0,0,1-4.63,1.31,6,6,0,0,1-1.48-.19c-1.19-.34-1.78-.91-1.78-1.69s.57-1.67,1.81-2.93c1.09-1.17,1.68-1.81,2-2.16-.55-.21-1.35-.48-2.42-.8a15.48,15.48,0,0,1-3-1.2c-1.2-.72-1.82-1.51-1.82-2.36a4.68,4.68,0,0,1,1.37-2.63,16.75,16.75,0,0,1,5.22-4.09l1.48-1a3.36,3.36,0,0,1,2.39-.56c1,.18,1.55.58,1.55,1.17a4.7,4.7,0,0,1-.06.52,4,4,0,0,0,0,.54v.39h-.39a8.7,8.7,0,0,0-4.88,1.39c-2.87,1.92-3.47,3.11-3.47,3.78,0,.21,0,.87,1.56,1.36a22,22,0,0,0,5.91,1.22,8.68,8.68,0,0,0,1.55-.14c.68-.18,1.79-.43,3.28-.74a9.28,9.28,0,0,0,1.5-.35,5.18,5.18,0,0,1,1.27-.26,2.45,2.45,0,0,1,2.05,1.55l.23.42a18.14,18.14,0,0,1,1.09-2.81c1.46-3,3.34-4.8,5.59-5.44l.11,0,.1,0c.34.09.71.21,1.12.36a2.3,2.3,0,0,1,1.4,2.25,10.62,10.62,0,0,1-1.17,3.77,11.44,11.44,0,0,1-4.54,4.91c-1,.66-1.35.89-1.44,1a1.44,1.44,0,0,0-.57,1.22,1.21,1.21,0,0,0,1.38,1.27,3.85,3.85,0,0,0,1.06-.16c3.47-.89,5.65-3.42,6.66-7.75l.11-.47.44.21a2.6,2.6,0,0,1,1.72,2.41,6,6,0,0,1-1.69,3.57m14.8-1.25a21.55,21.55,0,0,1-2.26,2.51,21.86,21.86,0,0,1-2.58,2.28,5.57,5.57,0,0,1-3.16,1.14,5.2,5.2,0,0,1-2-.42c-1.45-.67-2.19-2-2.19-4a16.11,16.11,0,0,1,.47-3.39,15.17,15.17,0,0,1,2-4.81c1.52-2.27,3.34-3.13,5.44-2.43L199,92l-.31.44A20.36,20.36,0,0,1,196.33,95a10.27,10.27,0,0,0-2,2.56,9,9,0,0,0-1.13,4.15,3.41,3.41,0,0,0,.38,1.69,1,1,0,0,0,.9.54,5.33,5.33,0,0,0,3.23-1.74,25.21,25.21,0,0,0,2.46-3,8.63,8.63,0,0,1,2.73-2.57l.41-.2.14.43a4.62,4.62,0,0,1,.23,1.41,4.78,4.78,0,0,1-1,2.74m6.72-3.94a38.23,38.23,0,0,0-.34,4.82,9.44,9.44,0,0,1-1.16,4.79l-.18.29-.32-.14c-1.27-.6-1.93-2.37-2-5.44,0-2.07,0-4.13,0-6.21,0-.07-.17-.71-.42-1.86a10.92,10.92,0,0,1-.36-2.39c0-1.32.67-2.05,1.91-2.05.89,0,1.45.85,1.66,2.53,0,.68.07,1.35.11,2,4.61-5.5,7.47-6.21,9.16-3.17l.25.46-.51.11a14.86,14.86,0,0,0-4.86,1.89,7.09,7.09,0,0,0-2.88,4.36m18.87,5.19a17.82,17.82,0,0,1-2.89,2.72,8.77,8.77,0,0,1-5.37,1.75,4.24,4.24,0,0,1-3.18-1.08,3.66,3.66,0,0,1-.82-2.85,19.93,19.93,0,0,1,2-7.65c1.46-3,3.34-4.8,5.59-5.44l.11,0,.11,0c.34.09.71.21,1.12.36a2.31,2.31,0,0,1,1.39,2.25,10.62,10.62,0,0,1-1.17,3.77,11.41,11.41,0,0,1-4.53,4.91c-1.09.7-1.37.9-1.45,1a1.46,1.46,0,0,0-.56,1.22,1.2,1.2,0,0,0,1.37,1.27,3.74,3.74,0,0,0,1.06-.16c3.48-.89,5.66-3.42,6.67-7.75l.11-.47.44.21A2.6,2.6,0,0,1,230,98.69a6,6,0,0,1-1.69,3.57m16.45-12.2A24.28,24.28,0,0,0,242,91.49c-1.29.73-2.19,1.23-2.72,1.49a4,4,0,0,0-1.4,1,1.71,1.71,0,0,0-.29,1c0,.16,0,.4,0,.71s0,.72,0,.92.05.93.14,2.23.11,2.09.11,2.83c0,2.92-.51,4.45-1.61,4.83l-.33.11-.15-.31a12.08,12.08,0,0,1-1-4.17c0-1.49-.06-2.94-.11-4.38a2,2,0,0,0-1.1-1.9l-3.41-1.34.71-.41c.87-.49,1.74-1,2.62-1.56a2.38,2.38,0,0,0,1.18-2.1v-4a9.69,9.69,0,0,1,.78-3.81l.26-.55.4.46a7.06,7.06,0,0,1,1.26,4.5,18.11,18.11,0,0,0,.44,4c.47-.28,1.28-.79,2.46-1.53a15.53,15.53,0,0,1,3.06-1.56l.61,0,.09.05a1.33,1.33,0,0,1,.74.91c.06.28.12.55.17.82l.05.3Zm15,4.71c-1.31.61-2.65,1.18-2.65,2.92v6.72a2.2,2.2,0,1,1-4.38,0V92.49A2.16,2.16,0,0,1,255,90.3c1.15,0,2.12.42,2.12,1.82h.07a3.44,3.44,0,0,1,3.07-1.82,2.14,2.14,0,0,1,2.13,2.34c0,1.43-1.31,1.52-2.62,2.13m12.11,8.43c2.25,0,3.8-1.77,5-1.77a1.94,1.94,0,0,1,1.79,1.89c0,1.88-3.89,3.71-7.15,3.71-4.92,0-8.21-3.59-8.21-8.43,0-4.44,3.23-8.49,7.85-8.49s7.88,4.32,7.88,8c0,1.31-.58,2-1.92,2h-9.34c.31,2.16,2.1,3.17,4.14,3.17m17.31-.19c1.1,0,2.74-.91,3.26-.91A1.92,1.92,0,0,1,294.3,104c0,2.25-3.77,3-5.35,3-4.71,0-7.85-3.86-7.85-8.43s3.23-8.49,7.85-8.49c1.73,0,5.35.64,5.35,2.77,0,.92-.63,2.1-1.67,2.1s-2.07-.85-3.47-.85c-2.49,0-3.68,2.22-3.68,4.47s1.31,4.41,3.68,4.41m12.2,1.4a2.2,2.2,0,1,1-4.38,0V92.73a2.2,2.2,0,1,1,4.38,0Zm-2.19-15.76a2.56,2.56,0,0,1-2.46-2.52,2.47,2.47,0,0,1,4.93,0,2.51,2.51,0,0,1-2.47,2.52M312.81,107a6.28,6.28,0,0,1-4-1.52v5.35a2.2,2.2,0,1,1-4.38,0V92.73a2.21,2.21,0,0,1,2.19-2.43,2.08,2.08,0,0,1,2.19,1.82,4.85,4.85,0,0,1,4.17-2c4.71,0,7.06,4.41,7.06,8.67s-2.8,8.25-7.21,8.25m17.95-3.83c2.25,0,3.8-1.77,5-1.77a1.94,1.94,0,0,1,1.79,1.89c0,1.88-3.89,3.71-7.15,3.71-4.93,0-8.21-3.59-8.21-8.43,0-4.44,3.22-8.49,7.85-8.49s7.88,4.32,7.88,8c0,1.31-.58,2-1.92,2h-9.34c.3,2.16,2.1,3.17,4.14,3.17"/><path class="cls-1" d="M330,93.76a3.52,3.52,0,0,0-3.47,3.35h7a3.48,3.48,0,0,0-3.5-3.35"/><path class="cls-1" d="M312.23,94.13c-2.35,0-3.44,2.19-3.44,4.32s1,4.56,3.44,4.56,3.4-2.37,3.4-4.41-1.12-4.47-3.4-4.47"/><path class="cls-1" d="M8.07,61.41a5.62,5.62,0,0,0,4.48-2,8.45,8.45,0,0,0,1.66-5.6V39.26c0-4.38.52-7.77,1.54-10.07.94-2.11,2.89-3.14,5.95-3.14a3.74,3.74,0,0,1,3.09,1.14,6.22,6.22,0,0,1,1.26,3.26,57.35,57.35,0,0,1,.26,6.21V53.81A8.43,8.43,0,0,0,28,59.43a5.59,5.59,0,0,0,4.44,2,5.76,5.76,0,0,0,4.53-2,8.41,8.41,0,0,0,1.68-5.63V39.5c0-4.47.36-7.6,1.06-9.27a7.69,7.69,0,0,1,2.59-3.06,5.94,5.94,0,0,1,3.43-1.12,4,4,0,0,1,3.18,1.14,5.68,5.68,0,0,1,1.34,3.08,43.23,43.23,0,0,1,.27,5.44v18.1a8.31,8.31,0,0,0,1.71,5.61,6.1,6.1,0,0,0,9,0,8.36,8.36,0,0,0,1.69-5.63v-21c0-4.34-.47-7.46-1.41-9.54a11.66,11.66,0,0,0-4.94-5.33,15.54,15.54,0,0,0-7.73-1.84,14.72,14.72,0,0,0-7,1.69A18.21,18.21,0,0,0,36.65,22a12.77,12.77,0,0,0-4.32-4.19,14.24,14.24,0,0,0-7.14-1.72A15.67,15.67,0,0,0,18,17.75a17.52,17.52,0,0,0-4.64,3.55,6,6,0,0,0-1.59-3.56A5.54,5.54,0,0,0,7.62,16a5.24,5.24,0,0,0-4.18,1.86A7.76,7.76,0,0,0,1.89,23V53.81A8.31,8.31,0,0,0,3.6,59.42a5.7,5.7,0,0,0,4.47,2"/><path class="cls-1" d="M81.6,34.87c-2.62.55-4.26.91-4.91,1.07a14.15,14.15,0,0,0-7.84,4.44A12,12,0,0,0,66,48.45a12.65,12.65,0,0,0,6.71,11.23,15.4,15.4,0,0,0,7.4,1.73,20.65,20.65,0,0,0,8.21-1.58A32,32,0,0,0,95,55.74a22.37,22.37,0,0,0,2.94,3.88,5.33,5.33,0,0,0,3.73,1.79,5.76,5.76,0,0,0,4-1.57,4.84,4.84,0,0,0,1.77-3.62,18.7,18.7,0,0,0-1-4.48,21.59,21.59,0,0,1-.94-6.08q0-3.24.06-5.88c0-1.76,0-3.91,0-6.43a24.9,24.9,0,0,0-1.69-10,11,11,0,0,0-6-5.72c-2.7-1.16-6.42-1.74-11.07-1.74a27.11,27.11,0,0,0-10.53,1.8,14.76,14.76,0,0,0-6.39,4.69,10.21,10.21,0,0,0-2.09,6A4.64,4.64,0,0,0,69.35,32a5.11,5.11,0,0,0,3.57,1.38c1.57,0,2.61-.34,3.17-1a37.25,37.25,0,0,0,2.07-3.1,9,9,0,0,1,3.13-3.15,11.46,11.46,0,0,1,5.53-1c2.77,0,4.59.56,5.39,1.66a10.1,10.1,0,0,1,1.46,5.16c-1.93.57-3.74,1.07-5.39,1.48-1.83.45-4.08,1-6.68,1.51m12.1,5.24v.37c0,3.57-.43,6.14-1.3,7.65a8.4,8.4,0,0,1-3.48,3.28,11,11,0,0,1-5.29,1.3,5.62,5.62,0,0,1-4.1-1.49A4.69,4.69,0,0,1,78,47.66a3.83,3.83,0,0,1,1.23-3.07A7.45,7.45,0,0,1,82.1,43c1.09-.29,3.1-.77,6-1.41,2.29-.51,4.17-1,5.62-1.47"/><path class="cls-1" d="M112.07,26.37h.55V46.2a34.1,34.1,0,0,0,.8,8.21A8.67,8.67,0,0,0,117,59.58c1.8,1.22,4.43,1.83,7.82,1.83a18.58,18.58,0,0,0,8.23-1.47,5.08,5.08,0,0,0,3.19-4.71,4.38,4.38,0,0,0-1.23-3.15,3.89,3.89,0,0,0-2.85-1.3,12.86,12.86,0,0,0-2.61.35,11.77,11.77,0,0,1-2.29.32,2.32,2.32,0,0,1-1.8-.57,3.21,3.21,0,0,1-.71-1.77,32.52,32.52,0,0,1-.16-3.78v-19h1.11a11,11,0,0,0,5.11-1,3.93,3.93,0,0,0,2.09-3.76,4.45,4.45,0,0,0-1.42-3.38A5.51,5.51,0,0,0,127.6,17h-3V10.44a24.26,24.26,0,0,0-.3-4.35,5.49,5.49,0,0,0-1.59-2.94,5.8,5.8,0,0,0-4.14-1.77,5.64,5.64,0,0,0-3,.81,5.49,5.49,0,0,0-2,2.09,7,7,0,0,0-.85,2.88c-.09,1-.13,2.37-.13,4.15V17h-.32a6.1,6.1,0,0,0-4.13,1.29,4.33,4.33,0,0,0-1.52,3.4,4.51,4.51,0,0,0,1.44,3.4,5.63,5.63,0,0,0,4,1.33"/><path class="cls-1" d="M156.08,61.33a25.34,25.34,0,0,0,8.39-1.3,19,19,0,0,0,6.25-3.49,15.41,15.41,0,0,0,3.73-4.61,10.35,10.35,0,0,0,1.25-4.66,5.74,5.74,0,0,0-1.45-3.73,4.75,4.75,0,0,0-3.78-1.79A4.61,4.61,0,0,0,167.21,43,11.32,11.32,0,0,0,165,46a12.11,12.11,0,0,1-3.67,4.29,8.53,8.53,0,0,1-4.87,1.36,9,9,0,0,1-3.9-.85,8.19,8.19,0,0,1-3-2.48,12,12,0,0,1-2-4.06,19.92,19.92,0,0,1-.69-5.35c0-4.11.89-7.37,2.65-9.7a8.67,8.67,0,0,1,11.52-2.06,15.64,15.64,0,0,1,3.78,4.3,11.54,11.54,0,0,0,2.07,2.4,4.14,4.14,0,0,0,2.67.87,5.5,5.5,0,0,0,3.93-1.57,5.21,5.21,0,0,0,1.63-3.86,9.24,9.24,0,0,0-1.34-4.49,15.86,15.86,0,0,0-3.76-4.35,19.9,19.9,0,0,0-5.94-3.29,24.31,24.31,0,0,0-19.25,1.62A19,19,0,0,0,137.42,27a27.27,27.27,0,0,0-2.55,12.06c0,6.71,1.88,12.14,5.61,16.16s9,6.07,15.6,6.07"/><path class="cls-1" d="M185.32,61.41a5.52,5.52,0,0,0,4.48-2,8.25,8.25,0,0,0,1.58-5.39V39.81c0-4,.26-6.77.78-8.25a9,9,0,0,1,3-4.11A7.31,7.31,0,0,1,199.71,26c2.45,0,4,.77,4.89,2.34A16.68,16.68,0,0,1,206,35.87V54.05c0,6.09,3.24,7.36,6,7.36a5.54,5.54,0,0,0,4.4-1.94A8.09,8.09,0,0,0,218,54.05V33.43a37.58,37.58,0,0,0-.39-5.63A13.37,13.37,0,0,0,216,23.23a13.07,13.07,0,0,0-5.13-5.38A14.81,14.81,0,0,0,203.46,16a17.77,17.77,0,0,0-5.13.72,14.59,14.59,0,0,0-4.41,2.2,20.22,20.22,0,0,0-2.54,2.25V7.37A8.3,8.3,0,0,0,189.8,2,5.56,5.56,0,0,0,185.32,0a5.43,5.43,0,0,0-4.42,1.94,8.37,8.37,0,0,0-1.53,5.43V54.05c0,6.09,3.23,7.36,5.95,7.36"/><path class="cls-1" d="M228.87,61.41a5.43,5.43,0,0,0,4.18-1.82,6.82,6.82,0,0,0,1.56-4c.54.6,1,1.1,1.41,1.49a17,17,0,0,0,2.65,2.09,13.48,13.48,0,0,0,3.81,1.66,17.61,17.61,0,0,0,4.73.62,16.33,16.33,0,0,0,13.33-6.59,22.58,22.58,0,0,0,3.61-7.34,32.6,32.6,0,0,0,1.23-9.2,29,29,0,0,0-2.22-11.79,17.46,17.46,0,0,0-6.34-7.73,17,17,0,0,0-9.5-2.67,16.27,16.27,0,0,0-7.92,1.77,23.9,23.9,0,0,0-4.74,3.55V7a7.89,7.89,0,0,0-1.47-5.07A5.28,5.28,0,0,0,228.87,0a5,5,0,0,0-4.21,2,8.94,8.94,0,0,0-1.44,5.44v47a7.81,7.81,0,0,0,1.5,5.12,5.18,5.18,0,0,0,4.15,1.85m7.55-29.7a10.48,10.48,0,0,1,3.37-4.5,8.06,8.06,0,0,1,4.8-1.51,7.13,7.13,0,0,1,4.54,1.5,9.94,9.94,0,0,1,3.08,4.39,20,20,0,0,1,1.12,7c0,4.18-.89,7.41-2.65,9.6a7.55,7.55,0,0,1-6.09,3.22,8.26,8.26,0,0,1-6.79-3.15C236,46.16,235.16,43,235.16,39a18.8,18.8,0,0,1,1.26-7.24"/><path class="cls-1" d="M273.85,55.06a19.61,19.61,0,0,0,6.79,4.71,22.61,22.61,0,0,0,8.79,1.64,23.3,23.3,0,0,0,8.85-1.61,19.33,19.33,0,0,0,6.82-4.68,20.57,20.57,0,0,0,4.35-7.26,27.23,27.23,0,0,0,1.49-9.15,27.21,27.21,0,0,0-1.47-9.14,20.43,20.43,0,0,0-4.33-7.23,19.46,19.46,0,0,0-6.86-4.69A23.1,23.1,0,0,0,289.43,16a23.33,23.33,0,0,0-8.78,1.61,19,19,0,0,0-6.82,4.64,20.34,20.34,0,0,0-4.31,7.22,27.53,27.53,0,0,0-1.5,9.23,27.15,27.15,0,0,0,1.48,9.13,20.4,20.4,0,0,0,4.35,7.22m7.42-23.5a9.5,9.5,0,0,1,3.28-4.46,8.17,8.17,0,0,1,4.88-1.48A8.08,8.08,0,0,1,296.27,29c1.74,2.28,2.62,5.56,2.62,9.75s-.88,7.4-2.62,9.7a8.07,8.07,0,0,1-6.84,3.36,8.22,8.22,0,0,1-4.93-1.52,9.74,9.74,0,0,1-3.25-4.47,19.43,19.43,0,0,1-1.17-7.07,19.69,19.69,0,0,1,1.19-7.15"/><path class="cls-1" d="M322,37.58,313,51.06c-1.53,2.26-2.27,4-2.27,5.31a4.72,4.72,0,0,0,1.65,3.54,5.59,5.59,0,0,0,3.92,1.5,5.08,5.08,0,0,0,3.49-1.23,20.26,20.26,0,0,0,3-3.59l7-10.44,6.85,10.45a19,19,0,0,0,3,3.55,5.27,5.27,0,0,0,3.56,1.26A5.69,5.69,0,0,0,347,60a4.59,4.59,0,0,0,1.65-3.53c0-1.28-.77-3-2.35-5.39l-9.06-13.48,8-11.15A19.55,19.55,0,0,0,347,23.64a6.12,6.12,0,0,0,.63-2.71A4.57,4.57,0,0,0,346,17.42a5.72,5.72,0,0,0-4-1.41,5.27,5.27,0,0,0-3.52,1.22,19.42,19.42,0,0,0-3,3.55l-5.86,8.56-6-8.57a20.89,20.89,0,0,0-2.92-3.49A5.17,5.17,0,0,0,317.22,16a5.51,5.51,0,0,0-3.94,1.44,4.64,4.64,0,0,0-1.55,3.48c0,1.62.76,3.42,2.32,5.49Z"/></g></g></svg>