<svg xmlns="http://www.w3.org/2000/svg" viewBox="0 0 334.2 101.92"><defs><style>.cls-1{fill:#231f20;}</style></defs><g id="Layer_2" data-name="Layer 2"><g id="Layer_1-2" data-name="Layer 1"><path class="cls-1" d="M300.87,27.86c0-1.69-2.37-2-3.39-2.24a2.51,2.51,0,0,1-2.08-2.45c0-2.89,2.66-4.2,7.35-6s6.38-2.43,8-2.43a2.45,2.45,0,0,1,2.69,2.29c.09.64-.06,3.5.68,3.4,1.38-.18,1.82-5.31,6.48-5.31,5.63,0,7.08,7.11,7.08,11.25,0,2.74-.59,8.26-4.56,8.26-6.32,0-3.49-6.36-7.67-6.36-1.29,0-1.3.6-1.3,1v14c0,3.94,1,5.55,4.91,6.91,2.09.73,2.89,1.48,2.89,3.62,0,1.42-.29,3.62-3,3.62H300.3c-3.3,0-4.35-.88-4.35-4.18,0-2.17,1.23-2.57,2.44-3.06,2.48-1,2.48-5.54,2.48-7.64V27.86"/><path class="cls-1" d="M119.58,27.86c0-1.69-2.37-2-3.39-2.24a2.51,2.51,0,0,1-2.08-2.45c0-2.89,2.66-4.2,7.35-6s6.38-2.43,8-2.43a2.45,2.45,0,0,1,2.69,2.29c.08.64-.06,3.5.68,3.4,1.38-.18,1.82-5.31,6.48-5.31,5.63,0,7.08,7.11,7.08,11.25,0,2.74-.6,8.26-4.56,8.26-6.32,0-3.5-6.36-7.68-6.36-1.28,0-1.29.6-1.29,1v14c0,3.94,1,5.55,4.91,6.91,2.09.73,2.89,1.48,2.89,3.62,0,1.42-.29,3.62-3,3.62H119c-3.3,0-4.34-.88-4.34-4.18,0-2.17,1.23-2.57,2.43-3.06,2.49-1,2.49-5.54,2.49-7.64V27.86"/><path class="cls-1" d="M278.8,23c-1.89.27-3.2,2.73-3.2,4.89s.59,3.21,2.3,2.69c2.35-.71,4.89-.83,4.89-3.95C282.79,25.21,281.19,22.67,278.8,23Zm12.82,11.41c-5.52,1.62-14.78,4.31-14.78,4.31.56,4.65,2.62,8.71,8.14,8.71,4.74,0,7-4.59,8.77-4.78,1-.11,1.87.79.8,5-2,7.89-9.07,10.61-16,10.16-10.86-.71-15.31-8.38-15.31-19.21,0-12.11,6.53-23.42,18-23.42,9.79,0,14.56,11,14.56,15.8,0,1.7-1,2.52-4.22,3.47"/><path class="cls-1" d="M230,57.44c-4.66,1.09-9.21-.93-10.09-.8s-2.5,1.35-4,.49c-2.14-1.2-6.77-16.73-1.64-16.14,2.75.32,2.26,3.28,8.29,7.17,3,1.92,5.31,1.18,5.54-.86.73-6.18-15.34-8-16.2-18.28a12.73,12.73,0,0,1,12.73-13.87c4.56,0,4.92.94,6.77.94,1,0,1.41-1.14,2.24-1.14,2.39,0,4,7.51,4,10.18,0,2.46-1,3.72-2.77,3.72-3,0-4.56-4.6-8.73-5.56-1.25-.29-2.51.22-2.51,1.57,0,4.75,14.89,4.13,15.83,17,.85,11.56-5.77,14.71-9.42,15.56"/><path class="cls-1" d="M242,26.72c0-2.36-3.21-1.89-3.21-4.7,0-2.26,3-4.09,7.14-7.16C253.42,9.28,256,6.79,256,11.64c0,4.1-.11,5.31.77,5.31h4.92c1.67,0,1.61,1.16,1.61,2.31,0,1.61,0,2.88,0,4.29,0,1.87-1.33,1.56-4.64,1.56H256V41.38c0,5.2,1.3,7.32,3.2,7.32,1.49,0,4.9-1.48,4.9,1.82,0,6.27-8.74,7.3-11.58,7.3-4.86,0-10.6-2.51-10.6-11.36V26.72"/><path class="cls-1" d="M147,36.48c0-11.78,4.92-21.33,16.82-21.33S180.6,24.7,180.6,36.48s-4.92,21.33-16.83,21.33S147,48.26,147,36.48ZM165.23,50c2.81-.32,2.72-6.41,1.92-13.84s-2-13.41-4.83-13.09-2.72,6.4-1.92,13.84,2,13.41,4.83,13.09"/><path class="cls-1" d="M177.29,36.48c0-11.78,4.93-21.33,16.83-21.33s16.82,9.55,16.82,21.33S206,57.81,194.12,57.81,177.29,48.26,177.29,36.48ZM195.57,50c2.81-.32,2.73-6.41,1.93-13.84s-2-13.41-4.83-13.09-2.73,6.4-1.93,13.84,2,13.41,4.83,13.09"/><path class="cls-1" d="M100.17,36.85c0,7.31-.09,10.51,3,11.47,2,.61,3,4.51,0,6-2.71,1.36-10.26,2.8-12.76,3.38-3,.68-3.49-1.77-3.49-3.84,0,0-2.29,4-8.26,4-8.46,0-12.93-8.32-12.93-19.85S70,15.19,80.27,15.19c3.72,0,4.07,1.29,4.86,1.67,1.24.59,1.72-.08,1.72-3.49,0-4-1.89-4.23-3.06-4.59s-2.41-1-2.41-2.26c0-2.91,5.91-4.08,15-6.3,1.4-.34,3.86-.62,3.86,1.87C100.2,7.63,100.17,36.85,100.17,36.85Zm-15,12.26c2,0,1.64-4.15,1.64-13.78,0-8.13.34-11.34-1.79-11.34-3.87,0-5,7-5,10.38,0,4.88,1.11,14.74,5.2,14.74"/><path class="cls-1" d="M325.45,53.13a3.93,3.93,0,1,1,3.94,4.13A4,4,0,0,1,325.45,53.13Zm-.93,0a4.84,4.84,0,1,0,4.85-4.84A4.86,4.86,0,0,0,324.52,53.13Zm3,2.84h.92V53.46h.78L330.8,56h1l-1.6-2.51a1.44,1.44,0,0,0,1.45-1.57c0-1.06-.64-1.59-1.94-1.59h-2.17Zm.92-4.94h1.1c.59,0,1.17.18,1.17.82s-.46.88-1.17.88h-1.1V51"/><path class="cls-1" d="M5.47,27.86c0-1.69-2.37-2-3.4-2.24A2.51,2.51,0,0,1,0,23.17c0-2.89,2.66-4.2,7.35-6s6.38-2.43,8-2.43A2.45,2.45,0,0,1,18,17.08c.08.64-.06,3.5.68,3.4,1.38-.18,1.81-5.31,6.48-5.31,5.63,0,7.08,7.11,7.08,11.25,0,2.74-.59,8.26-4.56,8.26-6.32,0-3.5-6.36-7.68-6.36-1.29,0-1.29.6-1.29,1v14c0,3.94,1,5.55,4.91,6.91,2.08.73,2.89,1.48,2.89,3.62,0,1.42-.3,3.62-3,3.62H4.89c-3.3,0-4.34-.88-4.34-4.18,0-2.17,1.22-2.57,2.43-3.06,2.49-1,2.49-5.54,2.49-7.64V27.86"/><path class="cls-1" d="M47.81,23c-1.9.27-3.2,2.73-3.2,4.89s.58,3.21,2.3,2.69c2.35-.71,4.88-.83,4.88-3.95C51.79,25.21,50.19,22.67,47.81,23ZM60.62,34.41C55.1,36,45.84,38.72,45.84,38.72c.56,4.65,2.62,8.71,8.14,8.71,4.75,0,7-4.59,8.76-4.78,1-.11,1.88.79.81,5-2,7.89-9.07,10.61-16,10.16-10.87-.71-15.31-8.38-15.31-19.21,0-12.11,6.52-23.42,18-23.42,9.78,0,14.55,11,14.55,15.8,0,1.7-1,2.52-4.22,3.47"/><path class="cls-1" d="M66.28,93.27a2,2,0,0,1-1.54-.56A6.1,6.1,0,0,1,63,88.9c-.05-1.28-.05-2.27-.05-3.28V84.55c0-.3,0-.61,0-1s0-.77,0-1.2a1.4,1.4,0,0,1,1.46-1.49,2.47,2.47,0,0,1,2.44,2.23,14.06,14.06,0,0,1-.22,2.26,9.79,9.79,0,0,0-.17,1.54,4.28,4.28,0,0,0,.41,1.88,5.88,5.88,0,0,0,1.14,1.64l.34.39a1.45,1.45,0,0,1,.35.9C68.62,92.75,67.44,93.27,66.28,93.27Zm-2-10.86c0,.4,0,.79.06,1.16s0,.67,0,1v1.07c0,1,0,1.95.06,3.21a4.64,4.64,0,0,0,1.39,2.89A4.64,4.64,0,0,0,67,91.65l-.21-.2a7.47,7.47,0,0,1-1.38-2,5.93,5.93,0,0,1-.54-2.5,11.8,11.8,0,0,1,.18-1.77,12.16,12.16,0,0,0,.2-2C65.26,82.8,64.7,82.41,64.33,82.41ZM65,79.17a4,4,0,0,1-3.47-2.12,1.57,1.57,0,0,1-.23-.82,1.62,1.62,0,0,1,1.81-1.51l.25,0a6.42,6.42,0,0,1,3.42,1.31,1.45,1.45,0,0,1,.65,1.25,1.92,1.92,0,0,1-1.57,1.76A4.05,4.05,0,0,1,65,79.17Zm-1.9-3c-.21,0-.3,0-.31.07A2.63,2.63,0,0,0,65,77.67a3.29,3.29,0,0,0,.55-.07h0A.49.49,0,0,0,66,77.3a4.84,4.84,0,0,0-2.61-1.06l-.2,0Z"/><path class="cls-1" d="M73.78,94.33a2.09,2.09,0,0,1-1.66-.85c-.82-1-.88-2.73-.94-4.2a7.29,7.29,0,0,0-.22-2,2.54,2.54,0,0,1-.17-.51,1.43,1.43,0,0,0-.1-.28l-.36-.15a7.23,7.23,0,0,1-1.41-.78,1.69,1.69,0,0,1-.67-1.41,1.81,1.81,0,0,1,1.31-1.89,3.55,3.55,0,0,1,1.1,0,1.59,1.59,0,0,0,.29,0c-.12-.74-.26-1.36-.39-1.91a13.28,13.28,0,0,1-.46-3.45,1.52,1.52,0,0,1,1.67-1.54c1.16,0,2.78.89,2.78,2.34a1.61,1.61,0,0,1-.06.49,8.15,8.15,0,0,0-.29,2.14,18.5,18.5,0,0,0,.17,2.08l.06.52c0,.07,0,.12.19.13l.59,0,1.66,0c2,0,2.2-.16,2.54-.39l.26-.17a1.5,1.5,0,0,1,.86-.26,1.47,1.47,0,0,1,1.37,1.6,2.1,2.1,0,0,1-.6,1.51A6.59,6.59,0,0,1,76.46,87c-.4,0-.79,0-1.14,0l-.75,0c-.13,2.66.32,3.44.69,4.07a3.28,3.28,0,0,1,.5,1.27v.22A1.93,1.93,0,0,1,73.78,94.33ZM70.26,83.71a2.35,2.35,0,0,0-.35,0c-.07,0-.16.19-.16.42a.32.32,0,0,0,0,.2,5.58,5.58,0,0,0,1.13.61l.42.19a1.66,1.66,0,0,1,.88,1.21,2.44,2.44,0,0,0,.11.32,7.62,7.62,0,0,1,.34,2.52c0,1.19.1,2.67.63,3.34a.57.57,0,0,0,.47.27.5.5,0,0,0,.48-.31,1.55,1.55,0,0,0-.3-.73c-.43-.74-1-1.76-1-4.79a1.54,1.54,0,0,1,1.6-1.54l.85,0c1.43.07,3.53.22,4.84-1.13h0a.64.64,0,0,0,.16-.45l-.14.07c-.72.49-1.24.74-5.09.62l-.62,0a1.64,1.64,0,0,1-1.61-1.46l-.06-.52a20.77,20.77,0,0,1-.18-2.25,9.77,9.77,0,0,1,.35-2.55c0-.45-.72-.92-1.28-.92a.38.38,0,0,0-.19,0A13.18,13.18,0,0,0,72,80c.15.63.31,1.33.46,2.26a1.29,1.29,0,0,1-.42,1.08,1.51,1.51,0,0,1-1.14.41,2.13,2.13,0,0,1-.46,0Z"/><path class="cls-1" d="M82.18,82.27a1.54,1.54,0,0,1-1.46-1.61,1.86,1.86,0,0,1,.58-1.35c.83-.89,1-2.47,1.13-4.13,0-.49.1-1,.16-1.46a1.83,1.83,0,0,1,2-1.51,1.78,1.78,0,0,1,1.93,1.69c0,3.1-.27,6.54-3.6,8.2h0A1.53,1.53,0,0,1,82.18,82.27Zm2.36-8.56c-.25,0-.45.11-.46.18-.06.49-.11,1-.15,1.43-.18,1.84-.35,3.75-1.55,5a.41.41,0,0,0-.15.31l0,.07C84.52,79.57,85,77.25,85,73.9,85,73.78,84.72,73.71,84.54,73.71Z"/><path class="cls-1" d="M89.53,95.1A2.82,2.82,0,0,1,88,94.71a2.25,2.25,0,0,1-1.2-1.87,1.82,1.82,0,0,1,2.61-1.48,1.74,1.74,0,0,0,.71.14,3.94,3.94,0,0,0,1.9-.63c.12-.25-.21-.7-.32-.85a10,10,0,0,0-2.8-2.59A4.1,4.1,0,0,1,87,85.38a3.55,3.55,0,0,1-.22-1.21,2.5,2.5,0,0,1,1.5-2.36c.4-.18.84-.4,1.31-.63a11.25,11.25,0,0,1,4.14-1.51,1.82,1.82,0,0,1,.6.07c1.63.46,2.45,1.35,2.45,2.72a4.2,4.2,0,0,1-.1.9h0A2.66,2.66,0,0,1,94.34,85a1,1,0,0,1-1.11-1,1.27,1.27,0,0,1,0-.32c-.15.07-.36.19-.57.31a12.3,12.3,0,0,1-1.21.61l.73.71a32,32,0,0,1,3.43,3.65,3.14,3.14,0,0,1,.69,1.91,2.84,2.84,0,0,1-1,2.11A10.86,10.86,0,0,1,89.53,95.1Zm-1-2.42c-.13,0-.26,0-.26.16s.13.38.5.61a1.5,1.5,0,0,0,.73.15,9.73,9.73,0,0,0,4.83-1.75,1.34,1.34,0,0,0,.47-1,1.72,1.72,0,0,0-.38-1,31.13,31.13,0,0,0-3.28-3.47l-.89-.86a1.49,1.49,0,0,1-.41-1,1.21,1.21,0,0,1,.77-1.19A7.6,7.6,0,0,0,92,82.65c.24-.14.48-.27.74-.39a1.37,1.37,0,0,1,.65-.17,1.43,1.43,0,0,1,1.4,1.26,1.33,1.33,0,0,0,.47-.35,2.7,2.7,0,0,0,.06-.54c0-.36,0-.89-1.4-1.28h0a10.6,10.6,0,0,0-3.62,1.34c-.49.25-1,.48-1.36.66a1,1,0,0,0-.62,1,2.38,2.38,0,0,0,.13.72c.18.5.58.79,1.34,1.3a11.41,11.41,0,0,1,3.17,2.94,2.93,2.93,0,0,1,.73,1.68,1.56,1.56,0,0,1-.87,1.36,4.29,4.29,0,0,1-4,.56A.62.62,0,0,0,88.56,92.68Zm2.58-8Z"/><path class="cls-1" d="M109.44,101.92a5.74,5.74,0,0,1-3.7-1.51,7.2,7.2,0,0,1-2.18-4.64,1.59,1.59,0,0,1,1.6-1.82h.28c1.18.15,1.25,1.36,1.29,2.16.08,1.26.22,1.87,1.18,2.1a3.22,3.22,0,0,0,.86.1c3.07,0,4.61-4.21,4.61-6.57v-.2c0-.11,0-.21,0-.3,0-.48,0-.81,0-1.13a16.88,16.88,0,0,0-.16-2l-.22.3c-.88,1.15-2.33,3.07-4.21,3.07a2.27,2.27,0,0,1-.77-.13,4,4,0,0,1-3.14-3.75c0-1.09.48-2.81,2.77-4.76a9.07,9.07,0,0,1,5.24-2.27,3.12,3.12,0,0,1,2.83,1.55,5.24,5.24,0,0,1,.84,2.8c0,.32,0,.63-.07,1a8.33,8.33,0,0,0-.08,1.06c0,.28,0,.39,0,.51.09,1.12.18,2.33.18,3.54a12.8,12.8,0,0,1-2.64,8.42h0A5.71,5.71,0,0,1,109.44,101.92ZM107,99.51c1.93,1.45,4,1.11,5.69-1h0A11.41,11.41,0,0,0,115,91c0-1.15-.08-2.34-.17-3.49l0-.26c0-.11,0-.21,0-.3a11.38,11.38,0,0,1,.08-1.23,7.64,7.64,0,0,0,.07-.8,3.73,3.73,0,0,0-.64-2,1.61,1.61,0,0,0-1.53-.81A7.52,7.52,0,0,0,108.55,84c-1.45,1.24-2.25,2.52-2.25,3.62a2.53,2.53,0,0,0,2.07,2.32,1.28,1.28,0,0,0,.34.06c1.13,0,2.31-1.55,3-2.48a6.46,6.46,0,0,1,.75-.88,1.44,1.44,0,0,1,.93-.42c.63,0,1.1.53,1.18,1.36a20.21,20.21,0,0,1,.22,2.54c0,.29,0,.59,0,1.1l-.73.29.75-.07c0,.11,0,.23,0,.34,0,3.3-2.18,8.07-6.12,8.07a5.11,5.11,0,0,1-1.22-.14A3.17,3.17,0,0,1,107,99.51Zm-1.94-4.05s0,.11,0,.31a4,4,0,0,0,.23,1.17c0-.26,0-.51-.05-.73a7.21,7.21,0,0,0-.08-.75Zm3.62-6a1.74,1.74,0,0,1-1.39-.68,2.15,2.15,0,0,1-.43-1.34,3.72,3.72,0,0,1,1.93-3.16l.79-.42a5.69,5.69,0,0,1,2.31-.92,1.26,1.26,0,0,1,.74.24l.11.09a1.32,1.32,0,0,1,.4,1A6,6,0,0,1,111.86,87l-.49.75A3.49,3.49,0,0,1,108.71,89.47Zm2.9-5c-.3.15-.87.46-1.28.69l-.84.45a2.23,2.23,0,0,0-1.1,1.81.69.69,0,0,0,.12.43.23.23,0,0,0,.2.08,2.08,2.08,0,0,0,1.39-1l.51-.77A14.3,14.3,0,0,0,111.61,84.5Z"/><path class="cls-1" d="M123.25,93.74a7.91,7.91,0,0,1-.83-.06,5.92,5.92,0,0,1-4.82-5.44A6.23,6.23,0,0,1,121,82.83l.56-.35a7.62,7.62,0,0,0,1.87-1.4,2.76,2.76,0,0,1,2-1,2.26,2.26,0,0,1,2.13,1.5c.17.48.38.95.6,1.42a8.7,8.7,0,0,1,1.06,3.7,5.22,5.22,0,0,1-.13,1.23C128.43,90.85,126.38,93.74,123.25,93.74Zm2.18-12.12a1.36,1.36,0,0,0-1,.5,9.49,9.49,0,0,1-2.18,1.65l-.54.33c-1.86,1.17-2.66,2.38-2.66,4.05a4.41,4.41,0,0,0,3.54,4,5.37,5.37,0,0,0,.61,0c1.8,0,3.15-1.42,3.89-3.14a2.27,2.27,0,0,1-.19.34,3.84,3.84,0,0,1-3.38,2.15l-.27,0A3.34,3.34,0,0,1,120,87.92v-.21a3.6,3.6,0,0,1,1.83-3.09c1.65-1.08,2.3-.54,2.68-.22a.86.86,0,0,0,.32.19h0a.82.82,0,0,0,.22-.16,1.24,1.24,0,0,1,.86-.42,1,1,0,0,1,.87.56,5.07,5.07,0,0,1,.76,2.67,4.66,4.66,0,0,1-.17,1.28,6.92,6.92,0,0,0,.25-.89h0a3.84,3.84,0,0,0,.09-.88,7.5,7.5,0,0,0-.92-3.07c-.24-.52-.47-1-.66-1.55A.75.75,0,0,0,125.43,81.62Zm-2,3.89a1.7,1.7,0,0,0-.74.35,2.1,2.1,0,0,0-1.17,1.85v.21c0,1.36.55,2,1.81,2.14l.2,0a2.47,2.47,0,0,0,2.18-1.43,2.61,2.61,0,0,0,.36-1.41,3.71,3.71,0,0,0-.3-1.44,1.52,1.52,0,0,1-.9.3,1.25,1.25,0,0,1-.45-.07,2.13,2.13,0,0,1-.84-.47A.23.23,0,0,0,123.4,85.51Zm2.74-.54-.65.37h0Z"/><path class="cls-1" d="M134.46,94.33a2.09,2.09,0,0,1-1.65-.85c-.82-1-.88-2.73-.94-4.2a7.29,7.29,0,0,0-.22-2,3.91,3.91,0,0,1-.18-.51c0-.1-.07-.24-.09-.28l-.36-.15a7,7,0,0,1-1.42-.78,1.72,1.72,0,0,1-.67-1.41,1.82,1.82,0,0,1,1.31-1.89,3.63,3.63,0,0,1,1.11,0,1.59,1.59,0,0,0,.29,0c-.13-.74-.27-1.36-.39-1.92a13.2,13.2,0,0,1-.46-3.44,1.52,1.52,0,0,1,1.66-1.54c1.17,0,2.79.89,2.79,2.34a1.53,1.53,0,0,1-.07.51,8.41,8.41,0,0,0-.28,2.12,18.34,18.34,0,0,0,.17,2.07l.06.52c0,.09,0,.13.19.14l.59,0,1.66,0c2,0,2.2-.16,2.53-.39l.26-.17a1.56,1.56,0,0,1,.87-.26,1.47,1.47,0,0,1,1.37,1.6,2.1,2.1,0,0,1-.6,1.51A6.59,6.59,0,0,1,137.15,87c-.4,0-.79,0-1.14,0l-.75,0c-.13,2.66.32,3.44.69,4.07a3.28,3.28,0,0,1,.49,1.27v.22A1.93,1.93,0,0,1,134.46,94.33ZM131,83.71a2.09,2.09,0,0,0-.34,0c-.08,0-.18.19-.18.42a.31.31,0,0,0,.06.2,5.68,5.68,0,0,0,1.13.62l.42.18a1.69,1.69,0,0,1,.88,1.2c0,.11.06.22.1.33a7.34,7.34,0,0,1,.35,2.52c0,1.19.1,2.67.62,3.34a.57.57,0,0,0,1,0,1.74,1.74,0,0,0-.3-.73c-.43-.75-1-1.76-1-4.79a1.54,1.54,0,0,1,1.61-1.54l.85,0c.33,0,.7,0,1.07,0,1.82,0,3-.36,3.76-1.16v0a.59.59,0,0,0,.17-.44l-.15.07c-.71.49-1.24.74-5.09.62l-.61,0a1.64,1.64,0,0,1-1.61-1.46l-.06-.52a18.51,18.51,0,0,1-.18-2.25,9.9,9.9,0,0,1,.34-2.55c0-.45-.71-.92-1.28-.92a.36.36,0,0,0-.18,0,13.18,13.18,0,0,0,.44,3.12c.14.62.3,1.33.46,2.26a1.29,1.29,0,0,1-.42,1.08,1.53,1.53,0,0,1-1.14.41,2.29,2.29,0,0,1-.47,0Z"/><path class="cls-1" d="M146.68,94.33a2.09,2.09,0,0,1-1.66-.85c-.82-1-.88-2.73-.94-4.21a7.26,7.26,0,0,0-.22-2,5.08,5.08,0,0,1-.17-.51,1.43,1.43,0,0,0-.1-.28l-.36-.15a7.23,7.23,0,0,1-1.41-.78,1.69,1.69,0,0,1-.67-1.41,1.82,1.82,0,0,1,1.31-1.89,3.56,3.56,0,0,1,1.1,0,1.39,1.39,0,0,0,.3,0c-.13-.74-.27-1.36-.4-1.92a13.67,13.67,0,0,1-.45-3.44,1.51,1.51,0,0,1,1.66-1.54c1.16,0,2.78.89,2.78,2.34a1.61,1.61,0,0,1-.06.49,8.15,8.15,0,0,0-.29,2.14,18.5,18.5,0,0,0,.17,2.08l.06.52c0,.07,0,.12.19.13l.59,0,1.66,0c2,0,2.21-.16,2.54-.39l.26-.17a1.5,1.5,0,0,1,.86-.26,1.47,1.47,0,0,1,1.37,1.6,2.1,2.1,0,0,1-.6,1.51A6.59,6.59,0,0,1,149.36,87c-.4,0-.78,0-1.14,0l-.75,0c-.13,2.66.33,3.44.69,4.07a3.29,3.29,0,0,1,.5,1.26v.23A1.93,1.93,0,0,1,146.68,94.33Zm-3.51-10.62a2.33,2.33,0,0,0-.36,0c-.07,0-.16.19-.16.42a.32.32,0,0,0,0,.2,5.83,5.83,0,0,0,1.13.61l.42.2a1.63,1.63,0,0,1,.88,1.2,2.44,2.44,0,0,0,.11.32,7.62,7.62,0,0,1,.34,2.52c0,1.19.1,2.67.63,3.34a.58.58,0,0,0,.47.27.51.51,0,0,0,.49-.31,1.7,1.7,0,0,0-.31-.73c-.43-.74-1-1.76-1-4.79a1.54,1.54,0,0,1,1.6-1.54l.85,0c1.43.07,3.53.22,4.84-1.13h0a.6.6,0,0,0,.16-.44l-.14.07c-.72.49-1.24.74-5.09.62l-.62,0a1.64,1.64,0,0,1-1.61-1.46l-.06-.52a20.77,20.77,0,0,1-.18-2.25,9.77,9.77,0,0,1,.35-2.55c0-.45-.72-.92-1.28-.92a.46.46,0,0,0-.19,0,13.72,13.72,0,0,0,.44,3.12c.15.62.31,1.33.46,2.26a1.29,1.29,0,0,1-.42,1.08,1.57,1.57,0,0,1-1.14.41,2.32,2.32,0,0,1-.46,0Z"/><path class="cls-1" d="M169.87,94.3a1.31,1.31,0,0,1-.92-.36c-2-1.69-2.58-3.49-3.15-5.66-.08-.33-.18-.42-.19-.42s-.12.08-.23.2A20.43,20.43,0,0,1,160,92.58c-3.6,2-6.14-.6-6.14-3.16a3.74,3.74,0,0,1,.6-2,15.35,15.35,0,0,1,6.86-5.32c1.22-.56,3-.9,4,.07a3.29,3.29,0,0,0,.35.28,2.61,2.61,0,0,1,.2-.26,1.55,1.55,0,0,1,1.21-.61,2.41,2.41,0,0,1,2,1.41,10,10,0,0,1,.53,3.33c.12,2.26.29,3.89,1.47,4.23a1.2,1.2,0,0,1,.87,1.25C172,92.76,171.07,94.3,169.87,94.3Zm-4.19-7.93c.28,0,1.22.11,1.58,1.54.6,2.29,1.12,3.55,2.64,4.87a1.73,1.73,0,0,0,.56-.91c-2.08-.8-2.22-3.41-2.33-5.52a9.45,9.45,0,0,0-.4-2.79,1,1,0,0,0-.64-.53,1.84,1.84,0,0,1-1.41.89,2.06,2.06,0,0,1-1.36-.7c-.55-.51-1.61-.16-2.38.19a13.78,13.78,0,0,0-6.23,4.81,2.17,2.17,0,0,0-.35,1.2c0,1.63,1.47,3.2,3.9,1.85a16.48,16.48,0,0,0,3.8-2.94h0a6.72,6.72,0,0,0-2.27,1.43,4.22,4.22,0,0,1-2.57,1.32,1.81,1.81,0,0,1-2-1.78,1.67,1.67,0,0,1,.38-1.1,14.11,14.11,0,0,1,4.88-3.84,1.74,1.74,0,0,1,.8-.24c1,0,1.58.91,1.58,2.31a3.47,3.47,0,0,1-.21,1.25l.59-.63A1.92,1.92,0,0,1,165.68,86.37Zm5,5.58h0Zm-8.43-6.27a12.83,12.83,0,0,0-4.48,3.49c0,.21,0,.42.4.42s1-.48,1.64-1A8.74,8.74,0,0,1,162.33,87a2.5,2.5,0,0,0,.06-.56A2,2,0,0,0,162.26,85.68Z"/><path class="cls-1" d="M184.38,95.19c-1.6,0-2.17-.93-2.17-1.73a1.88,1.88,0,0,1,0-.49l.1-.5a7.08,7.08,0,0,1,.33-1.32,1.69,1.69,0,0,1-2.16-1.76l0-.65c0-.6.08-1.1.08-1.59a14,14,0,0,0-.62-3.79,6.46,6.46,0,0,0-2-3.66,1.77,1.77,0,0,1-.59-1.37,2.71,2.71,0,0,1,2.29-2.55,1.24,1.24,0,0,1,1,.49,19.27,19.27,0,0,1,3.22,6.86l0,.1,0,0a5.22,5.22,0,0,1,5.81-1.13c2.46,1.08,3.87,3,3.87,5.11a5.62,5.62,0,0,1-.26,1.63h0c-1.08,3.51-3.91,4.67-6.92,5.89l-.3.13A4.76,4.76,0,0,1,184.38,95.19Zm0-3.92c-.21.08-.34.53-.52,1.47,0,.19-.07.38-.1.56,0,.38.58.39.65.39a3.18,3.18,0,0,0,1.21-.24l.31-.12c2.9-1.19,5.18-2.12,6-5a4.11,4.11,0,0,0,.2-1.2c0-2.11-1.86-3.25-3-3.74a3.77,3.77,0,0,0-4.21.88,1.89,1.89,0,0,1-1.24.57c-.95,0-1.18-1-1.27-1.36a17.78,17.78,0,0,0-2.86-6.22,1.49,1.49,0,0,0-.69,1,.29.29,0,0,0,.1.26A7.85,7.85,0,0,1,181.48,83a15.22,15.22,0,0,1,.67,4.18c0,.52,0,1.06-.08,1.7l0,.45c0,.29.05.37.06.38a1.26,1.26,0,0,0,.93-.34,3.47,3.47,0,0,0,1.06-1.87c.08-.26.16-.54.27-.84a3.79,3.79,0,0,1,4.37-2.18c1.86.44,2.81,1.38,2.81,2.79a4.61,4.61,0,0,1-.41,1.76c-.82,2-2.41,2.73-4.09,3.44l-.61.27a1.75,1.75,0,0,1-.74.18c-1,0-1.15-.89-1.23-1.28A2.94,2.94,0,0,0,184.35,91.27Zm.23-1.41a1.56,1.56,0,0,1,1.33,1.42h0l.53-.23c1.62-.69,2.7-1.15,3.29-2.63a3.12,3.12,0,0,0,.3-1.19c0-.28,0-.93-1.67-1.34a2.28,2.28,0,0,0-2.6,1.24c-.1.28-.17.53-.24.76A5.23,5.23,0,0,1,184.58,89.86Z"/><path class="cls-1" d="M203.68,94.75a11,11,0,0,1-3.44-.49c-2.44-.79-5.69-2.22-5.69-5.4a3.78,3.78,0,0,1,.08-.9c.59-3.17,2.47-4.6,4.69-6,3.06-1.92,5.32-2.24,7.77-1a3,3,0,0,1,1.67,2.68,3.35,3.35,0,0,1-1.09,2.43A7.58,7.58,0,0,1,203.89,88a14.23,14.23,0,0,0-2,.68,4.72,4.72,0,0,1-3.48.45c.45,1,2.08,1.54,3.53,1.92a11.71,11.71,0,0,0,5.82,0l.31,0a1.39,1.39,0,0,1,1.4,1.43,1.27,1.27,0,0,1-.59,1.11A9.9,9.9,0,0,1,203.68,94.75Zm.56-13a7.9,7.9,0,0,0-4.12,1.48c-2.05,1.31-3.54,2.44-4,5.05a3,3,0,0,0,0,.6c0,1.68,1.48,2.94,4.67,4a9.54,9.54,0,0,0,3,.4,10.11,10.11,0,0,0,3.68-.61,12.63,12.63,0,0,1-5.82-.12c-1.43-.37-4.78-1.24-4.78-3.91l0-.25a1.36,1.36,0,0,1,.53-1.09,1.06,1.06,0,0,1-.2-.64,1.59,1.59,0,0,1,.49-1.09,11.2,11.2,0,0,1,7.31-3.35H205a1.67,1.67,0,0,1,1.58,1.64,1.49,1.49,0,0,1-.69,1.27,12.2,12.2,0,0,1-5.23,2,11.48,11.48,0,0,0-1.87.47l-.08,0,.06.08a3.17,3.17,0,0,0,2.51-.31,15.31,15.31,0,0,1,2.25-.76A6.1,6.1,0,0,0,206.63,85a1.86,1.86,0,0,0,.63-1.35,1.48,1.48,0,0,0-.86-1.34A4.68,4.68,0,0,0,204.24,81.73Zm.67,2a9.57,9.57,0,0,0-5.3,2l.73-.15A11.13,11.13,0,0,0,205,83.87Z"/><path class="cls-1" d="M220.26,93.59a3,3,0,0,1-.64-.07c-1.31-.28-1.27-2-1.24-3.18v-.51c0-1-.52-6-.66-6.56a1.72,1.72,0,0,1,.38-2.22,1.86,1.86,0,0,1,1.58-.43,2,2,0,0,1,1.37.81,6.58,6.58,0,0,1,.48,2.12,9.35,9.35,0,0,1,2.54-1.92,4.59,4.59,0,0,1,4-.1,1.7,1.7,0,0,1,1,2.33,1.88,1.88,0,0,1-2,1.18h0l-.29-.12a1.12,1.12,0,0,0-1.14.08,2.88,2.88,0,0,0-1.15.82c-.15.16-.32.34-.55.55-.91.85-1.41,3.42-1.65,4.66a8.51,8.51,0,0,1-.21.94A1.92,1.92,0,0,1,220.26,93.59Zm-.9-11.5a.39.39,0,0,0-.25.07c-.12.11-.19.17,0,.52a58.34,58.34,0,0,1,.79,7.15v.55A4.93,4.93,0,0,0,220,92.1c.45.07.48,0,.67-.57,0-.15.1-.43.17-.79.4-2.07.93-4.37,2.1-5.47a4.9,4.9,0,0,0,.46-.47,4.24,4.24,0,0,1,1.63-1.16,2.53,2.53,0,0,1,2.37-.09l-.08.77.2-.72a.19.19,0,0,0-.1,0,.65.65,0,0,0,.3-.27c.08-.25.09-.28-.21-.4a3.1,3.1,0,0,0-2.83.07,7.5,7.5,0,0,0-2.78,2.49A.87.87,0,0,1,221,86a.91.91,0,0,1-.72-.85,26.67,26.67,0,0,0-.52-3A2.29,2.29,0,0,0,219.36,82.09Z"/><path class="cls-1" d="M237.84,94.75a11,11,0,0,1-3.43-.49c-2.44-.79-5.7-2.22-5.7-5.4a3.78,3.78,0,0,1,.08-.9c.59-3.17,2.48-4.6,4.69-6,3.05-1.91,5.33-2.24,7.77-1a3,3,0,0,1,1.68,2.68,3.35,3.35,0,0,1-1.09,2.43A7.66,7.66,0,0,1,238.06,88a13.93,13.93,0,0,0-2,.68,4.72,4.72,0,0,1-3.48.45c.45,1,2.09,1.54,3.54,1.92a11.71,11.71,0,0,0,5.82,0l.3,0a1.39,1.39,0,0,1,1.41,1.43,1.28,1.28,0,0,1-.59,1.11A9.94,9.94,0,0,1,237.84,94.75Zm.56-13a7.85,7.85,0,0,0-4.11,1.48c-2,1.31-3.54,2.43-4,5.05a2.43,2.43,0,0,0,0,.6c0,1.68,1.49,2.94,4.68,4a9.47,9.47,0,0,0,3,.4,10.07,10.07,0,0,0,3.68-.61,12.46,12.46,0,0,1-5.81-.12c-1.44-.37-4.79-1.24-4.79-3.91l0-.25a1.37,1.37,0,0,1,.54-1.09,1.08,1.08,0,0,1-.2-.64,1.62,1.62,0,0,1,.48-1.09,11.25,11.25,0,0,1,7.32-3.35h.06a1.67,1.67,0,0,1,1.57,1.64,1.5,1.5,0,0,1-.68,1.27,12.24,12.24,0,0,1-5.23,2,11.48,11.48,0,0,0-1.87.47l-.08,0a.86.86,0,0,1,.07.1,3.49,3.49,0,0,0,2.5-.33,14.83,14.83,0,0,1,2.24-.76A6.1,6.1,0,0,0,240.79,85a1.86,1.86,0,0,0,.63-1.35,1.46,1.46,0,0,0-.86-1.34A4.62,4.62,0,0,0,238.4,81.73Zm-6.72,6.77Zm7.4-4.82a9.6,9.6,0,0,0-5.31,2l.74-.15a11,11,0,0,0,4.65-1.71Z"/><path class="cls-1" d="M247.43,93.71a3.27,3.27,0,0,1-3.59-3.14,2.81,2.81,0,0,1,.65-1.81c2.21-2.79,5.17-4.45,7.78-5.92l1.1-.62a2.21,2.21,0,0,0,.41-.28,27.86,27.86,0,0,0-.66-4.94v-.26a1.48,1.48,0,0,1,1.52-1.46,1.85,1.85,0,0,1,1.2.48,6.22,6.22,0,0,1,2.2,4.56c.06,2.33.2,8.49,2.8,9.66.64.32.95.72.95,1.21a1.63,1.63,0,0,1-1.21,1.41h0a2.76,2.76,0,0,1-3-.52,6.39,6.39,0,0,1-1.51-2.56c-.15-.39-.3-.79-.52-1.24a.6.6,0,0,0-.22-.08c-1.33,2.1-2.46,3.65-5,4.8A6.94,6.94,0,0,1,247.43,93.71Zm7.2-16.93a28.61,28.61,0,0,1,.63,5.21,1.82,1.82,0,0,1-1.12,1.52l-1.14.64c-2.48,1.4-5.3,3-7.34,5.56a1.32,1.32,0,0,0-.31.86c0,.82.64,1.64,2.08,1.64a5.39,5.39,0,0,0,2.27-.57c2-.92,2.93-2,4.35-4.21a1.72,1.72,0,0,1,2.84.18,14.24,14.24,0,0,1,.58,1.37,5,5,0,0,0,1.17,2,1.19,1.19,0,0,0,1.32.21c-3.22-1.71-3.37-8.1-3.43-10.86a4.73,4.73,0,0,0-1.68-3.46A.41.41,0,0,0,254.63,76.78Zm-6.76,15.07a1.64,1.64,0,0,1-1.76-1.66,1.7,1.7,0,0,1,.38-1.07,23.87,23.87,0,0,1,6.2-4.52l.44-.25a1.36,1.36,0,0,1,2.07,1,1.53,1.53,0,0,1-.42,1l-.82,1a11.73,11.73,0,0,1-4.9,4.2A3.3,3.3,0,0,1,247.87,91.85Zm5.19-5.74a21.37,21.37,0,0,0-5.42,4c0,.19,0,.26.23.26a1.66,1.66,0,0,0,.62-.15,10.26,10.26,0,0,0,4.29-3.73Zm.83-.45h0v0Z"/><path class="cls-1" d="M65.58,78a3.21,3.21,0,0,1-.71.08A3.3,3.3,0,0,1,62,76.33a.75.75,0,0,1-.12-.42c0-.38.32-.76,1.06-.76.09,0,.18,0,.3,0a5.54,5.54,0,0,1,2.92,1.15.74.74,0,0,1,.35.65A1.18,1.18,0,0,1,65.58,78Zm.53,14.19a1.34,1.34,0,0,1-1-.3,5.42,5.42,0,0,1-1.59-3.36c-.06-1.27-.06-2.24-.06-3.24V84.23c0-.65,0-1.35,0-2.15v0a.66.66,0,0,1,.71-.71,1.73,1.73,0,0,1,1.68,1.48v.06c0,1.44-.38,2.59-.38,3.74a5.22,5.22,0,0,0,.47,2.19A8.49,8.49,0,0,0,67.53,91a.74.74,0,0,1,.17.41C67.7,91.9,66.88,92.2,66.11,92.2Z"/><path class="cls-1" d="M80.6,84.56a5.83,5.83,0,0,1-4.31,1.38c-.71,0-1.39-.06-1.89-.06h0a.81.81,0,0,0-.86.74v.06c0,4.16,1.15,4.16,1.33,5.4v.12a1.2,1.2,0,0,1-1.24,1.06,1.33,1.33,0,0,1-1.06-.56c-1.12-1.44-.53-4.81-1.06-6-.21-.47-.18-.94-.62-1.15a8.88,8.88,0,0,1-1.68-.88,1,1,0,0,1-.36-.8,1.11,1.11,0,0,1,.71-1.15,4,4,0,0,1,.56-.06c.21,0,.41.06.68.06h.06c.26,0,.74-.24.74-.56v-.06c-.42-2.51-.89-3.34-.89-5.49,0-.56.41-.79.92-.79.85,0,2,.67,2,1.59a.77.77,0,0,1,0,.26A9.34,9.34,0,0,0,73.28,80a26.18,26.18,0,0,0,.23,2.69.88.88,0,0,0,.89.8c.94,0,1.68,0,2.3,0,2.54,0,2.57-.29,3.19-.67a.76.76,0,0,1,.47-.15c.38,0,.62.41.62.85A1.39,1.39,0,0,1,80.6,84.56Z"/><path class="cls-1" d="M82.37,81.11a.94.94,0,0,1-.36.08.8.8,0,0,1-.71-.85,1.14,1.14,0,0,1,.36-.83c1.29-1.38,1.21-3.77,1.5-6a1.12,1.12,0,0,1,1.21-.85c.59,0,1.18.32,1.18.94C85.55,76.89,85.14,79.72,82.37,81.11Z"/><path class="cls-1" d="M95.76,82.88a2,2,0,0,1-1.6,1c-.2,0-.35-.06-.35-.27v-.06c0-.08,0-.17,0-.26a.7.7,0,0,0-.68-.8.74.74,0,0,0-.32.09,16.23,16.23,0,0,1-2.13,1.06.48.48,0,0,0-.26.47.76.76,0,0,0,.18.51,39.09,39.09,0,0,1,4.24,4.42,2.34,2.34,0,0,1,.53,1.45,2.08,2.08,0,0,1-.7,1.56,10.27,10.27,0,0,1-5.34,2,2,2,0,0,1-1.12-.27,1.51,1.51,0,0,1-.86-1.24.94.94,0,0,1,1-.91,1.32,1.32,0,0,1,.56.12,2.6,2.6,0,0,0,1,.2,4.72,4.72,0,0,0,2.27-.73.84.84,0,0,0,.5-.71,2.3,2.3,0,0,0-.59-1.24c-2.06-2.83-4.07-2.86-4.6-4.43a2.77,2.77,0,0,1-.18-1,1.75,1.75,0,0,1,1.06-1.68c1.48-.65,3.84-2.07,5.14-2.07a1.16,1.16,0,0,1,.35,0c1.47.41,1.95,1.09,1.95,2A3.39,3.39,0,0,1,95.76,82.88Z"/><path class="cls-1" d="M113.14,98.63a4.52,4.52,0,0,1-7.08.89,6.5,6.5,0,0,1-1.92-4.07c0-.62.23-1.07.85-1.07h.18c1.36.18-.35,3.6,2.39,4.25a4.18,4.18,0,0,0,1,.12c3.51,0,5.37-4.46,5.37-7.32,0-.17,0-.35,0-.5-.12-1.42,0-1.3-.26-3.63,0-.26-.15-.68-.45-.68a.84.84,0,0,0-.44.24c-.62.53-2.24,3.54-4.24,3.54a1.7,1.7,0,0,1-.54-.09,3.27,3.27,0,0,1-2.62-3c0-1.21.73-2.68,2.51-4.19A8.23,8.23,0,0,1,112.63,81a2.38,2.38,0,0,1,2.19,1.18,4.44,4.44,0,0,1,.73,2.42c0,.62-.14,1.24-.14,2,0,.15,0,.33,0,.5.09,1.21.17,2.39.17,3.54A12.12,12.12,0,0,1,113.14,98.63ZM112.07,83.5a.49.49,0,0,0-.32-.12A10.06,10.06,0,0,0,109,84.65a2.94,2.94,0,0,0-1.51,2.47,1.43,1.43,0,0,0,.27.89,1,1,0,0,0,.8.38,2.8,2.8,0,0,0,2-1.35c.88-1.39,1.68-2.45,1.68-3.1A.57.57,0,0,0,112.07,83.5Z"/><path class="cls-1" d="M128.18,87.48c-.62,2.74-2.48,5.19-5.1,5.19a6.15,6.15,0,0,1-.74-.06,5.15,5.15,0,0,1-4.16-4.69v-.09c0-2.15,1.18-3.54,3-4.69a11.06,11.06,0,0,0,2.57-1.86,2.08,2.08,0,0,1,1.5-.74,1.51,1.51,0,0,1,1.42,1c.56,1.59,1.62,3.07,1.62,4.87A4.31,4.31,0,0,1,128.18,87.48ZM126,84.65c-.09-.15-.18-.21-.24-.21-.26,0-.53.59-1.06.59a.44.44,0,0,1-.2,0c-.59-.15-.71-.62-1.21-.62a2.58,2.58,0,0,0-1.18.53,2.86,2.86,0,0,0-1.51,2.48v.21a2.56,2.56,0,0,0,2.48,2.89c.12,0,.23,0,.35,0a3.16,3.16,0,0,0,2.75-1.8,3.33,3.33,0,0,0,.47-1.8A4.3,4.3,0,0,0,126,84.65Z"/><path class="cls-1" d="M141.28,84.56A5.8,5.8,0,0,1,137,85.94c-.7,0-1.38-.06-1.88-.06h0a.8.8,0,0,0-.86.74v.06c0,4.16,1.15,4.16,1.33,5.4v.12a1.2,1.2,0,0,1-1.24,1.06,1.33,1.33,0,0,1-1.06-.56c-1.12-1.44-.53-4.81-1.06-6-.21-.47-.18-.94-.62-1.15a8.64,8.64,0,0,1-1.69-.88,1,1,0,0,1-.35-.8,1.11,1.11,0,0,1,.71-1.15,4,4,0,0,1,.56-.06c.2,0,.41.06.68.06h.06c.26,0,.74-.24.74-.56v-.06c-.42-2.51-.89-3.34-.89-5.49,0-.56.41-.79.91-.79.86,0,2,.67,2,1.59a.77.77,0,0,1,0,.26A9,9,0,0,0,134,80a23.83,23.83,0,0,0,.24,2.69.88.88,0,0,0,.89.8c.94,0,1.68,0,2.3,0,2.53,0,2.56-.29,3.18-.67a.81.81,0,0,1,.48-.15c.38,0,.62.41.62.85A1.36,1.36,0,0,1,141.28,84.56Z"/><path class="cls-1" d="M153.5,84.56a5.83,5.83,0,0,1-4.31,1.38c-.71,0-1.39-.06-1.89-.06h0a.81.81,0,0,0-.86.74v.06c0,4.16,1.15,4.16,1.33,5.4v.12a1.2,1.2,0,0,1-1.24,1.06,1.34,1.34,0,0,1-1.06-.56c-1.12-1.44-.53-4.81-1.06-6-.21-.47-.18-.94-.62-1.15a8.88,8.88,0,0,1-1.68-.88,1,1,0,0,1-.36-.8,1.11,1.11,0,0,1,.71-1.15,4,4,0,0,1,.56-.06c.21,0,.42.06.68.06h.06c.26,0,.74-.24.74-.56v-.06c-.42-2.51-.89-3.34-.89-5.49,0-.56.41-.79.92-.79.85,0,2,.67,2,1.59a.77.77,0,0,1,0,.26,9.34,9.34,0,0,0-.32,2.36,26.18,26.18,0,0,0,.23,2.69.88.88,0,0,0,.89.8c.94,0,1.68,0,2.3,0,2.54,0,2.57-.29,3.19-.67a.76.76,0,0,1,.47-.15c.38,0,.62.41.62.85A1.39,1.39,0,0,1,153.5,84.56Z"/><path class="cls-1" d="M169.69,93.23a.53.53,0,0,1-.38-.15c-1.8-1.53-2.36-3-2.95-5.31-.18-.7-.53-1-.86-1a1.25,1.25,0,0,0-.85.44,19.59,19.59,0,0,1-5.19,4.37,4.51,4.51,0,0,1-2.13.65,3,3,0,0,1-2.89-3.16,2.92,2.92,0,0,1,.47-1.62,14.57,14.57,0,0,1,6.55-5.08,4.91,4.91,0,0,1,1.92-.53,1.78,1.78,0,0,1,1.27.48,1.49,1.49,0,0,0,.85.5c.24,0,.48-.15.8-.56a.81.81,0,0,1,.62-.33,1.67,1.67,0,0,1,1.33,1c.94,2.12-.3,7.16,2.48,8,.23.06.32.27.32.53C171.05,92.11,170.37,93.23,169.69,93.23Zm-7.55-8.67a1,1,0,0,0-.44.15A13.34,13.34,0,0,0,157,88.36a.93.93,0,0,0-.21.62A1.05,1.05,0,0,0,158,90h0c1.38,0,2.54-2.07,4.6-2.72.18-.06.33-.59.33-1.18C163,85.38,162.73,84.56,162.14,84.56Z"/><path class="cls-1" d="M192.5,88.28c-1,3.27-3.69,4.27-6.79,5.54a3.93,3.93,0,0,1-1.5.3c-.77,0-1.42-.27-1.42-1a1.12,1.12,0,0,1,0-.32c.24-1.09.3-2.54,1.42-2.54h.06c1,0,.47,1.54,1.21,1.54a1,1,0,0,0,.44-.12c2-.86,3.51-1.33,4.31-3.31a4.09,4.09,0,0,0,.35-1.47c0-.89-.53-1.66-2.24-2.07a3,3,0,0,0-3.48,1.71c-.45,1.21-.42,2-1.54,3a2,2,0,0,1-1.3.56c-.53,0-.94-.29-.94-1.06v-.15c.06-.82.12-1.47.12-2.09a14.55,14.55,0,0,0-.65-4,7.18,7.18,0,0,0-2.24-4A1,1,0,0,1,178,78a2,2,0,0,1,1.54-1.8.47.47,0,0,1,.41.21A18.27,18.27,0,0,1,183,83c.09.36.18.86.56.86a1.21,1.21,0,0,0,.74-.38,4.88,4.88,0,0,1,3.24-1.39,4.56,4.56,0,0,1,1.77.38c2,.89,3.42,2.42,3.42,4.43A5.05,5.05,0,0,1,192.5,88.28Z"/><path class="cls-1" d="M208.28,92.58a9.29,9.29,0,0,1-4.78,1.09,10.05,10.05,0,0,1-3.18-.44c-2.54-.83-5.2-2.12-5.2-4.69a3.21,3.21,0,0,1,.06-.74c.53-2.83,2.1-4.1,4.37-5.54a8.67,8.67,0,0,1,4.51-1.6,5.43,5.43,0,0,1,2.51.65,2.22,2.22,0,0,1,1.27,2,2.6,2.6,0,0,1-.86,1.89c-1.77,1.74-3.42,1.5-5.6,2.47a5.58,5.58,0,0,1-2.16.56,1.48,1.48,0,0,1-1.26-.5.52.52,0,0,0-.33-.2c-.12,0-.23.12-.26.44,0,.12,0,.21,0,.3,0,1.91,2.39,2.71,4.21,3.18a11,11,0,0,0,2.81.38,17.88,17.88,0,0,0,3.33-.38l.18,0a.65.65,0,0,1,.65.68A.53.53,0,0,1,208.28,92.58Zm-3.48-10h-.06A10.46,10.46,0,0,0,198,85.74a.86.86,0,0,0-.27.56.26.26,0,0,0,.27.29,1,1,0,0,0,.35-.09c1.59-.64,4.6-.59,7-2.36a.72.72,0,0,0,.36-.64A.93.93,0,0,0,204.8,82.61Z"/><path class="cls-1" d="M227.16,84a2,2,0,0,0-2,0c-1.15.53-1.15.82-1.89,1.5-1.39,1.3-1.83,5.16-2.06,5.93s-.54,1.27-1.63,1c-.83-.18-.65-1.83-.65-3s-.56-6.52-.7-6.81a1.08,1.08,0,0,1,.17-1.42,1.35,1.35,0,0,1,1.8.21,25.3,25.3,0,0,1,.59,3.27s.06.45.27,0a8.29,8.29,0,0,1,3.12-2.8,3.86,3.86,0,0,1,3.43-.09,1,1,0,0,1,.62,1.39C228.11,83.64,227.58,84.11,227.16,84Z"/><path class="cls-1" d="M242.45,92.58a9.29,9.29,0,0,1-4.78,1.09,10.16,10.16,0,0,1-3.19-.44c-2.53-.83-5.19-2.12-5.19-4.69a3.21,3.21,0,0,1,.06-.74c.53-2.83,2.09-4.1,4.36-5.54a8.7,8.7,0,0,1,4.52-1.6,5.46,5.46,0,0,1,2.51.65,2.23,2.23,0,0,1,1.26,2,2.59,2.59,0,0,1-.85,1.89c-1.77,1.74-3.42,1.5-5.61,2.47a5.5,5.5,0,0,1-2.15.56,1.5,1.5,0,0,1-1.27-.5.52.52,0,0,0-.32-.2c-.12,0-.24.12-.27.44,0,.12,0,.21,0,.3,0,1.91,2.39,2.71,4.22,3.18a11,11,0,0,0,2.8.38,18.07,18.07,0,0,0,3.34-.38c.06,0,.12,0,.17,0a.64.64,0,0,1,.65.68A.54.54,0,0,1,242.45,92.58Zm-3.48-10h-.06a10.46,10.46,0,0,0-6.79,3.13.89.89,0,0,0-.26.56.26.26,0,0,0,.26.29,1,1,0,0,0,.35-.09c1.6-.64,4.61-.59,7-2.36a.74.74,0,0,0,.35-.64A.92.92,0,0,0,239,82.61Z"/><path class="cls-1" d="M260.12,91.58a2.48,2.48,0,0,1-.89.18,1.74,1.74,0,0,1-1.29-.54c-1.13-1.12-1.19-2.18-1.89-3.59a1.08,1.08,0,0,0-.89-.51.79.79,0,0,0-.65.39c-1.35,2.12-2.39,3.45-4.66,4.48a6,6,0,0,1-2.59.65,2.54,2.54,0,0,1-2.84-2.39,2.08,2.08,0,0,1,.47-1.33c2.45-3.09,5.91-4.78,8.68-6.37.35-.2.77-.44.77-.85v0a26.88,26.88,0,0,0-.65-5.14v-.11a.73.73,0,0,1,.76-.71,1.13,1.13,0,0,1,.71.29,5.45,5.45,0,0,1,2,4c.06,2.6.21,9,3.24,10.33.36.18.5.35.5.53S260.5,91.43,260.12,91.58Zm-6.4-7a.92.92,0,0,0-.39.09c-1.86,1.06-4.66,2.56-6.43,4.6a.87.87,0,0,0-.21.59.9.9,0,0,0,1,.91,2.43,2.43,0,0,0,.91-.21c2.69-1.06,4-3.3,5.43-5a.82.82,0,0,0,.24-.53C254.28,84.73,254,84.59,253.72,84.59Z"/></g></g></svg>