<svg xmlns="http://www.w3.org/2000/svg" viewBox="0 0 234.06 132.78"><defs><style>.cls-1{fill:#231f20;}</style></defs><g id="Layer_2" data-name="Layer 2"><g id="Layer_1-2" data-name="Layer 1"><line class="cls-1" x1="106.99" y1="71.61" x2="115.2" y2="71.61"/><polygon class="cls-1" points="98.73 49.04 106.98 49.04 106.98 71.61 115.2 71.61 115.2 49.04 123.46 49.04 123.46 41.7 98.73 41.7 98.73 49.04"/><path class="cls-1" d="M141.43,41c-9,0-16.19,6.74-16.19,15.64s7.21,15.63,16.19,15.63,16.2-6.74,16.2-15.63S150.42,41,141.43,41Zm0,23.14a7.5,7.5,0,1,1,7.58-7.5A7.59,7.59,0,0,1,141.43,64.16Z"/><path class="cls-1" d="M186.83,52.59c0-6.26-5-10.89-11.4-10.89H161.69V71.61h8.22V63.48h3.87l3.74,8.13h9.23l-5.12-10C184.53,59.57,186.83,56.62,186.83,52.59Zm-11.4,3.51h-5.52V49h5.52c1.85,0,3.06,2.07,3.06,3.55S177.28,56.1,175.43,56.1Z"/><rect class="cls-1" x="191.82" y="41.7" width="8.22" height="29.91"/><path class="cls-1" d="M220.2,41.7h-3.08L203.26,71.61h8.81l1.44-3.39H223.8l1.44,3.39h8.82ZM216,61.12l2.55-5.82h.17l2.55,5.82Z"/><path class="cls-1" d="M82.83,72c-8.77,0-15.75-6.62-15.75-15.36s7-15.35,15.75-15.35A15.32,15.32,0,0,1,96,48.76l-6.85,4.11a7.49,7.49,0,0,0-6.31-3.6,7.37,7.37,0,1,0,6.31,11.12l4.51,2.71L122.89,0H0L19.45,42h9.07L36,58,43.4,42h9.08L38.87,71.35H33.06L61.45,132.6l29-62.66A15.24,15.24,0,0,1,82.83,72Zm-19.49-.64H55V42h8.39Z"/><path class="cls-1" d="M115.41,87a7.32,7.32,0,0,0-3.89-1.17c-1.54,0-2.63.61-2.63,1.65s1.19,1.31,2.84,1.59l.77.13c2.45.4,4.38,1.45,4.38,3.84,0,3-2.67,4.47-5.62,4.47a9.6,9.6,0,0,1-5.79-1.79l1.42-2.21A7.22,7.22,0,0,0,111.27,95c1.52,0,2.69-.6,2.69-1.65s-1-1.31-2.91-1.61l-.87-.14c-2.42-.38-4.19-1.45-4.19-3.93,0-2.87,2.55-4.36,5.47-4.36a9.67,9.67,0,0,1,5.25,1.47Z"/><path class="cls-1" d="M125.44,90H122v3.47c0,1.19.63,1.62,1.42,1.62a3.67,3.67,0,0,0,1.79-.62l.94,2a5.32,5.32,0,0,1-3.15,1c-2.35,0-3.56-1.33-3.56-3.79V90h-1.83V87.75h1.83V84.92H122v2.83h3.44Z"/><path class="cls-1" d="M136.52,97.25H134v-1a3.51,3.51,0,0,1-2.85,1.29,5,5,0,0,1,0-10,3.5,3.5,0,0,1,2.85,1.3v-1h2.5Zm-7.33-4.76a2.46,2.46,0,1,0,2.45-2.62A2.45,2.45,0,0,0,129.19,92.49Z"/><path class="cls-1" d="M145.68,90h-3.44v3.47c0,1.19.63,1.62,1.42,1.62a3.67,3.67,0,0,0,1.79-.62l.94,2a5.32,5.32,0,0,1-3.15,1c-2.35,0-3.56-1.33-3.56-3.79V90h-1.83V87.75h1.83V84.92h2.56v2.83h3.44Z"/><path class="cls-1" d="M156.24,92.48a7,7,0,0,1-.05.86h-6.74a2.3,2.3,0,0,0,2.44,2,3.86,3.86,0,0,0,2.41-.92l1.5,1.65a5.77,5.77,0,0,1-4.05,1.44,5,5,0,0,1-.13-10C154.36,87.49,156.23,89.52,156.24,92.48Zm-6.78-.88h4.21a2.12,2.12,0,0,0-4.21,0Z"/><path class="cls-1" d="M117.9,103l-2,1.93a4.3,4.3,0,0,0-3.32-1.44,4.55,4.55,0,0,0,0,9.08c2.24,0,3.54-1.08,3.9-3H113V107.3h6.32a6.74,6.74,0,0,1,0,.77c0,4.16-2.82,7.09-6.71,7.09A7.12,7.12,0,1,1,117.9,103Z"/><path class="cls-1" d="M130.87,110.16a5.14,5.14,0,1,1-5.15-5A4.94,4.94,0,0,1,130.87,110.16Zm-7.67,0a2.53,2.53,0,1,0,2.52-2.62A2.49,2.49,0,0,0,123.2,110.16Z"/><path class="cls-1" d="M137.81,114.92h-2.95l-3.76-9.51h2.79l2.46,6.81,2.48-6.81h2.7Z"/><path class="cls-1" d="M151.19,110.15a7,7,0,0,1-.05.86H144.4a2.3,2.3,0,0,0,2.45,2,3.84,3.84,0,0,0,2.4-.91l1.5,1.65a5.77,5.77,0,0,1-4.05,1.44,5,5,0,0,1-.13-10C149.31,105.16,151.18,107.19,151.19,110.15Zm-6.77-.88h4.2a2.11,2.11,0,0,0-4.2,0Z"/><path class="cls-1" d="M159.35,105.37l-.38,2.54a4.08,4.08,0,0,0-1.55-.31,1.91,1.91,0,0,0-2,2.14v5.18h-2.56v-9.51h2.48v1a3,3,0,0,1,2.68-1.29A3.78,3.78,0,0,1,159.35,105.37Z"/><path class="cls-1" d="M169.67,108.87v6h-2.56v-5.23c0-1.37-.69-2.13-1.86-2.13a2,2,0,0,0-2,2.15v5.21h-2.56v-9.51h2.49v1.12a3.19,3.19,0,0,1,2.8-1.37A3.54,3.54,0,0,1,169.67,108.87Z"/><path class="cls-1" d="M187.25,108.87v6H184.7v-5.23c0-1.37-.69-2.13-1.85-2.13a2,2,0,0,0-2,2.15v5.21h-2.56v-5.23c0-1.37-.69-2.13-1.85-2.13a2,2,0,0,0-2,2.15v5.21h-2.56v-9.51h2.49v1.12a3.19,3.19,0,0,1,2.79-1.37,3.6,3.6,0,0,1,3.14,1.63,3.58,3.58,0,0,1,3.23-1.63A3.54,3.54,0,0,1,187.25,108.87Z"/><path class="cls-1" d="M198.28,110.15a7,7,0,0,1-.05.86h-6.74a2.29,2.29,0,0,0,2.44,2,3.85,3.85,0,0,0,2.41-.91l1.5,1.65a5.78,5.78,0,0,1-4.05,1.44,5,5,0,0,1-.13-10C196.39,105.16,198.27,107.19,198.28,110.15Zm-6.78-.88h4.21a2.12,2.12,0,0,0-4.21,0Z"/><path class="cls-1" d="M208.93,108.87v6h-2.56v-5.23c0-1.37-.68-2.13-1.85-2.13a2,2,0,0,0-2,2.15v5.21H200v-9.51h2.49v1.12a3.19,3.19,0,0,1,2.79-1.37A3.54,3.54,0,0,1,208.93,108.87Z"/><path class="cls-1" d="M217.92,107.69h-3.44v3.47c0,1.19.62,1.62,1.42,1.62a3.63,3.63,0,0,0,1.78-.62l.95,2a5.32,5.32,0,0,1-3.15,1c-2.36,0-3.56-1.33-3.56-3.79v-3.68h-1.84v-2.28h1.84v-2.82h2.56v2.82h3.44Z"/><path class="cls-1" d="M118.2,132.59h-1.85l-1.51-3.75h-6.66l-1.5,3.75h-1.8l5.58-13.73h2.15Zm-9.36-5.39h5.34l-2.67-6.64Z"/><path class="cls-1" d="M128.13,128.68a3.92,3.92,0,0,1-4.25,4.1c-2.24,0-4.25-1.28-4.25-4.1v-5.41h1.6v5.27a2.65,2.65,0,1,0,5.29,0v-5.27h1.61Z"/><path class="cls-1" d="M137.28,125.34a5.81,5.81,0,0,0-3-.86c-1.27,0-2.1.54-2.1,1.38s.68,1.09,1.81,1.23l1.08.13c2,.27,3.14,1.1,3.14,2.64,0,1.77-1.59,2.92-4.13,2.92a6.68,6.68,0,0,1-3.92-1.19l.75-1.2a4.84,4.84,0,0,0,3.18,1c1.53,0,2.48-.5,2.48-1.42,0-.69-.61-1.12-1.88-1.28l-1.08-.12c-2.08-.26-3.09-1.2-3.09-2.61,0-1.79,1.48-2.87,3.74-2.87a6.81,6.81,0,0,1,3.72,1Z"/><path class="cls-1" d="M146.66,124.73h-3.91v4.54c0,1.4.74,2,1.75,2a3.43,3.43,0,0,0,1.91-.63l.75,1.21a4.68,4.68,0,0,1-2.79.92c-2,0-3.23-1.11-3.23-3.48v-4.57h-2v-1.46h2v-2.92h1.61v2.92h3.91Z"/><path class="cls-1" d="M154.83,123.38l-.4,1.58a3.57,3.57,0,0,0-1.59-.37c-1.43,0-2.43,1.09-2.43,2.81v5.19h-1.6v-9.32h1.58v1.23a3.27,3.27,0,0,1,2.73-1.43A4.11,4.11,0,0,1,154.83,123.38Z"/><path class="cls-1" d="M165.07,132.59h-1.61v-1.25a4.11,4.11,0,0,1-3.28,1.44,4.86,4.86,0,0,1,0-9.71,4.07,4.07,0,0,1,3.28,1.46v-1.26h1.61Zm-7.91-4.66a3.2,3.2,0,1,0,3.2-3.35A3.19,3.19,0,0,0,157.16,127.93Z"/><path class="cls-1" d="M169.64,132.59h-1.59V118.47h1.59Z"/><path class="cls-1" d="M174.55,120a1.11,1.11,0,0,1-1.14,1.11,1.1,1.1,0,0,1-1.13-1.11,1.12,1.12,0,0,1,1.13-1.15A1.14,1.14,0,0,1,174.55,120Zm-.33,12.59h-1.6v-9.32h1.6Z"/><path class="cls-1" d="M186,132.59h-1.6v-1.25a4.15,4.15,0,0,1-3.29,1.44,4.86,4.86,0,0,1,0-9.71,4.1,4.1,0,0,1,3.29,1.46v-1.26H186Zm-7.91-4.66a3.2,3.2,0,0,0,3.21,3.35,3.35,3.35,0,1,0-3.21-3.35Z"/></g></g></svg>