<svg xmlns="http://www.w3.org/2000/svg" viewBox="0 0 198.43 199.92"><defs><style>.cls-1{fill:#231f20;}</style></defs><g id="Layer_2" data-name="Layer 2"><g id="Layer_1-2" data-name="Layer 1"><path class="cls-1" d="M9.26,145.4h3.58c6.92,0,10.8-3.59,10.8-10.5s-4-10.5-10.8-10.5H9.26ZM0,117.53H12.64c12.09,0,20.55,3.78,20.55,17.22,0,13-8.71,17.51-20.55,17.51H0Z"/><path class="cls-1" d="M54.84,136.84c0-3-1.39-5.43-5-5.43-3.24,0-4.78,2.44-5,5.43ZM45,141.91c.5,3.59,3.24,5,7.61,5a16.84,16.84,0,0,0,7.92-2v6.32A26.09,26.09,0,0,1,51,152.86c-8.56,0-15.08-5-15.08-13.59s5.83-13.53,13.89-13.53c9.6,0,13.09,6.82,13.09,14.53v1.64Z"/><path class="cls-1" d="M69.63,132.61H64.35v-6.27h5.43v-1.59c0-7.72,3.63-10.41,10.8-10.41a24.41,24.41,0,0,1,4.57.5L84.61,121a8.21,8.21,0,0,0-2.84-.4c-2.29,0-3.19,1.6-3.19,4.14v1.59H85v6.27H78.58v19.65h-9Z"/><path class="cls-1" d="M105.16,136.84c0-3-1.39-5.43-5-5.43-3.23,0-4.77,2.44-5,5.43Zm-9.85,5.07c.49,3.59,3.23,5,7.61,5a16.78,16.78,0,0,0,7.91-2v6.32a26,26,0,0,1-9.5,1.64c-8.56,0-15.08-5-15.08-13.59s5.82-13.53,13.88-13.53c9.61,0,13.09,6.82,13.09,14.53v1.64Z"/><path class="cls-1" d="M116.81,126.34H125v4.77h.1c1.79-3.73,5.37-5.37,9.45-5.37,7.07,0,9.91,5,9.91,10.35v16.17h-9V139.72c0-4.87-1.69-6.52-4.13-6.52-3.69,0-5.57,2.54-5.57,8.12v10.94h-9Z"/><path class="cls-1" d="M169.21,133.75a9.77,9.77,0,0,0-5.42-1.44c-3.88,0-6.87,2.68-6.87,7.17,0,4.12,3.48,6.81,7.36,6.81a12.21,12.21,0,0,0,5.58-1.24l.2,6.67a24.4,24.4,0,0,1-7.32,1.14c-8.56,0-15.08-5-15.08-13.53s6.52-13.59,15.08-13.59a16.18,16.18,0,0,1,7.12,1.44Z"/><path class="cls-1" d="M190.36,136.84c0-3-1.39-5.43-5-5.43-3.24,0-4.78,2.44-5,5.43Zm-9.85,5.07c.5,3.59,3.24,5,7.62,5a16.84,16.84,0,0,0,7.91-2v6.32a26.09,26.09,0,0,1-9.51,1.64c-8.56,0-15.08-5-15.08-13.59s5.83-13.53,13.89-13.53c9.6,0,13.09,6.82,13.09,14.53v1.64Z"/><path class="cls-1" d="M54.3,179.77h3.83c3.63,0,8.46-1,8.46-6.47,0-5-4.63-5.72-7.56-5.72H54.3Zm-.1,16.57h3.58c4.63,0,9.85-1.24,9.85-6.77,0-6.17-5.32-6.82-10.4-6.82h-3Zm-3.44-31.75H59c5.67,0,11,1.89,11,8.56,0,4.43-2,7.07-6.32,7.91v.1c4.38.8,7.37,3.69,7.37,8.26,0,7.57-6.18,9.91-13.39,9.91H50.76Z"/><path class="cls-1" d="M91.57,186.54h-.89c-5.43,0-11.9.54-11.9,6.12,0,3.33,2.39,4.57,5.28,4.57,7.36,0,7.51-6.41,7.51-9.15Zm.3,8.71h-.1c-1.39,3-4.93,4.67-8.06,4.67-7.22,0-8.36-4.87-8.36-7.16,0-8.51,9.06-8.91,15.63-8.91h.59v-1.29c0-4.33-1.54-6.52-5.77-6.52a13.38,13.38,0,0,0-7.46,2.09v-3a20.07,20.07,0,0,1,7.46-1.74c6.27,0,8.91,2.84,8.91,9.46V194a36,36,0,0,0,.25,5.33H91.87Z"/><path class="cls-1" d="M101.08,179.92c0-1.94,0-3.93-.2-6h3v4.53h.1c1-2.29,2.93-5.13,8.21-5.13,6.27,0,8.66,4.18,8.66,9.75v16.23h-3.14V183.9c0-4.78-1.69-7.86-6-7.86-5.72,0-7.51,5-7.51,9.25v14h-3.14Z"/><polygon class="cls-1" points="127.66 162 127.66 199.33 130.79 199.33 130.79 186.29 143.33 199.33 147.66 199.33 133.78 185.19 146.17 173.95 142.14 173.95 130.79 184.35 130.79 162 127.66 162"/><path class="cls-1" d="M100.84,26.78a2.37,2.37,0,0,1,1,.06h.05l.06,0a1.81,1.81,0,0,0,.7.52.63.63,0,0,0,.81-.25c.15-.32-.29-.5-1-.59a1.41,1.41,0,0,0-.46,0,.13.13,0,0,0-.07-.05,2.65,2.65,0,0,0-1.25,0,.18.18,0,0,0-.11.23A.17.17,0,0,0,100.84,26.78ZM99.22,0a46.58,46.58,0,0,0-39.4,21.73L99.21,44.48l39.4-22.75A46.56,46.56,0,0,0,99.22,0Zm7.63,34.66a1.45,1.45,0,0,1-1.46.38,21.1,21.1,0,0,1-1.59-1.4.18.18,0,0,0-.25.25,18.68,18.68,0,0,0,1.53,1.36.46.46,0,0,1-.17.49,1.69,1.69,0,0,1-1.53.23c-.1-.16-.49-.76-.95-1.5a.18.18,0,0,0-.25,0,.17.17,0,0,0-.05.24c.53.87,1,1.55,1,1.55h0a.55.55,0,0,1-.12.49,1.46,1.46,0,0,1-1.27.37h0a9,9,0,0,1-.72-1.75.18.18,0,1,0-.34.09,9.37,9.37,0,0,0,.81,1.94,6.84,6.84,0,0,0-.22.7c-.09.29-.17.58-.24.76a.38.38,0,0,1-.19.31c-.35.18-1.09-.08-1.42-.24v-3.1c0-.2-.36-.2-.36,0v3.13c-.36.16-1,.39-1.38.21a.43.43,0,0,1-.21-.36,6.36,6.36,0,0,1-.22-.71c-.09-.3-.16-.51-.21-.66h0a11.86,11.86,0,0,0,.76-2,.19.19,0,0,0-.13-.22.18.18,0,0,0-.22.13,10.71,10.71,0,0,1-.65,1.75h0a1.46,1.46,0,0,1-1.28-.37.57.57,0,0,1-.11-.55c.1-.15.5-.76,1-1.5a.17.17,0,0,0-.06-.24.17.17,0,0,0-.24,0c-.47.76-.87,1.37-1,1.51a1.66,1.66,0,0,1-1.47-.24.46.46,0,0,1-.18-.52,16.91,16.91,0,0,0,1.5-1.33.18.18,0,0,0-.25-.25A20.29,20.29,0,0,1,93,35.05a1.44,1.44,0,0,1-1.41-.39.25.25,0,0,1,.06-.35c.43-.43,3-2.36,4.78-3.69a8.6,8.6,0,0,0-1.07-.16l.17-.9-1-.09L94.7,29a1.08,1.08,0,0,0-1,.66,4.29,4.29,0,0,1-2,0c-.07,0-.1-.07-.1-.11a.2.2,0,0,0-.11-.16.19.19,0,0,0-.19,0,.92.92,0,0,1-1.32,0,.17.17,0,0,0-.14-.06.17.17,0,0,0-.13.07,1.56,1.56,0,0,1-1.1.58h0a.77.77,0,0,1-.71-.37,6.07,6.07,0,0,0,.85-1.14.17.17,0,0,0-.07-.24.17.17,0,0,0-.24.07,6.76,6.76,0,0,1-.86,1.13,2.57,2.57,0,0,1-1.19.36c-.62-.08-.7-.21-.7-.23s0,0,0-.09h0a13.14,13.14,0,0,0,1.34-1.39.18.18,0,1,0-.27-.23,11.44,11.44,0,0,1-1.5,1.5,1.24,1.24,0,0,1-.7.12c-.32-.08-.42-.16-.45-.21a.28.28,0,0,1,0-.21,11.77,11.77,0,0,0,1.14-1.4.19.19,0,0,0,0-.25.19.19,0,0,0-.25.05A10.5,10.5,0,0,1,84,28.78a1.67,1.67,0,0,1-1.34.11.79.79,0,0,1-.38-.38,4.48,4.48,0,0,0,1.12-1,3,3,0,0,1,.3-.32.18.18,0,0,0-.25-.26l-.32.34a3.75,3.75,0,0,1-1.37,1.05,1.62,1.62,0,0,1-.79,0c-.15,0-.54-.17-.61-.32a.16.16,0,0,1,0-.07,8,8,0,0,0,1.78-1.41.18.18,0,0,0,0-.25.17.17,0,0,0-.25,0,7.78,7.78,0,0,1-1.74,1.36A2.3,2.3,0,0,1,79,27.57c-.38-.17-.53-.32-.54-.42s0-.09.08-.14a8.4,8.4,0,0,0,2.22-1.38.18.18,0,0,0,0-.25.18.18,0,0,0-.25,0,8.11,8.11,0,0,1-2.18,1.34A1.94,1.94,0,0,1,76,25.52a11.08,11.08,0,0,0,3.54-.9.19.19,0,0,0,.09-.24.18.18,0,0,0-.24-.09,10.29,10.29,0,0,1-3.57.87h-.26a2.14,2.14,0,0,1-1.12-.45,1.32,1.32,0,0,1-.58-.84.4.4,0,0,1,.08-.26,7.46,7.46,0,0,0,1.12.07,30.12,30.12,0,0,0,3.42-.27.18.18,0,0,0-.05-.36s-3.7.53-4.81.12h0a2.86,2.86,0,0,1-1.34-1.23,1.42,1.42,0,0,1-.1-1.3.31.31,0,0,1,.17-.17,14.72,14.72,0,0,0,4.08,1.21h0a.19.19,0,0,0,.18-.15.18.18,0,0,0-.16-.2A14.37,14.37,0,0,1,72.15,20a5.63,5.63,0,0,1-1.74-2.9,1.67,1.67,0,0,1,.34-1.79c.07,0,.19-.09.35.06.49.5.82.87.85.9a8.41,8.41,0,0,0,3.11,2.65l.08,0a.18.18,0,0,0,.16-.1.18.18,0,0,0-.07-.24,8.18,8.18,0,0,1-3-2.55l-.54-1.31a1.53,1.53,0,0,1-.09-1.22.23.23,0,0,1,.12-.09c.09,0,.35.28.55.52a7.33,7.33,0,0,0,.61.66c2,1.8,3.31,2.76,4.77,3l.78.15.58.12A9.36,9.36,0,0,1,81.86,19a34.23,34.23,0,0,0,5.61,2.11,7.52,7.52,0,0,1,1.71.72l.42.21c.34.18,5.41,3.15,5.46,3.18l0,0,.66,0,.14-1,.83.57.49-.8.94.65.59-.65.69.59.63-.49.58.67a2.41,2.41,0,0,1,1,.1c.31.15.8.59,1.25.59a1.25,1.25,0,0,1,.86.37,3.75,3.75,0,0,1,.69.93c.08.24.14.18.14.18s1-.13,1.26.41a1,1,0,0,1,0,1,2.73,2.73,0,0,0-.67-.41l-.43-.17s-.35.33-.33.43.12.45.35.5a1.72,1.72,0,0,1,.66.25l-.42.33s-.32.21-1-.36a1.23,1.23,0,0,1-.3-.36s-.21.41-.56.42a1.53,1.53,0,0,1-.42-.19,1.68,1.68,0,0,1-.24.27s0,.05,0,.09h0l-.9.14-.71-.3a.14.14,0,0,0-.11,0l-.63.15a.17.17,0,0,0-.13.21.16.16,0,0,0,.21.13l.58-.13.69.3h.1l1-.15s0,0,0,0l0,.07.41.54-.89.52,0,0c1.79,1.33,4.31,3.23,4.74,3.65A.25.25,0,0,1,106.85,34.66ZM128,17.06a5.58,5.58,0,0,1-1.74,2.9A14.41,14.41,0,0,1,122,21.3a.2.2,0,0,0-.16.21.17.17,0,0,0,.18.15h0a15,15,0,0,0,4.07-1.21.34.34,0,0,1,.18.18,1.38,1.38,0,0,1-.11,1.29,2.78,2.78,0,0,1-1.34,1.23h0c-1.1.41-4.77-.11-4.81-.12a.17.17,0,0,0-.19.16.17.17,0,0,0,.14.2,30.39,30.39,0,0,0,3.43.27,7.46,7.46,0,0,0,1.12-.07.37.37,0,0,1,.07.27,1.29,1.29,0,0,1-.57.83,2.14,2.14,0,0,1-1.12.45h-.26a10.22,10.22,0,0,1-3.57-.87.18.18,0,1,0-.15.33,11.08,11.08,0,0,0,3.54.9,1.94,1.94,0,0,1-2.28,1.19,8.11,8.11,0,0,1-2.18-1.34.18.18,0,1,0-.24.26A8,8,0,0,0,119.92,27c.06.06.09.1.08.14s-.16.25-.54.41a2.21,2.21,0,0,1-1.15.13,7.78,7.78,0,0,1-1.74-1.36.18.18,0,1,0-.26.24A7.75,7.75,0,0,0,118.09,28s0,.06,0,.07-.46.28-.6.33a1.91,1.91,0,0,1-.79,0,3.77,3.77,0,0,1-1.37-1.06L115,27a.17.17,0,0,0-.25,0,.18.18,0,0,0,0,.25c.11.1.2.21.3.32a4.31,4.31,0,0,0,1.12,1,.79.79,0,0,1-.38.38,1.73,1.73,0,0,1-1.35-.11,11.26,11.26,0,0,1-1-1.32.18.18,0,0,0-.3.2,10.8,10.8,0,0,0,1.14,1.4c0,.09,0,.17,0,.21s-.12.13-.45.2a1.18,1.18,0,0,1-.7-.11,10.52,10.52,0,0,1-1.49-1.5.18.18,0,0,0-.25,0,.17.17,0,0,0,0,.25,11.16,11.16,0,0,0,1.33,1.38v0a.2.2,0,0,1,0,.09s-.08.15-.7.23a2.61,2.61,0,0,1-1.2-.36,5.85,5.85,0,0,1-.85-1.13.17.17,0,0,0-.24-.07.17.17,0,0,0-.07.24,5.77,5.77,0,0,0,.84,1.14.76.76,0,0,1-.71.37h0a1.6,1.6,0,0,1-1.1-.58.21.21,0,0,0-.14-.07.2.2,0,0,0-.14.06.9.9,0,0,1-1.31,0,.17.17,0,0,0-.19,0,.17.17,0,0,0-.11.15s0,.08-.11.11a3.54,3.54,0,0,1-1.58.08l.44-.35.53-.49.18-.28a1.41,1.41,0,0,0-1.44-2.1,4.29,4.29,0,0,0-.77-1l0,0a1.76,1.76,0,0,0-.56-.34c.63-.37,5.07-3,5.39-3.13l.42-.21a7.52,7.52,0,0,1,1.71-.72A34.57,34.57,0,0,0,116.57,19a10.29,10.29,0,0,1,2.84-1.14l.57-.11.79-.15c1.46-.26,2.75-1.23,4.76-3a6.25,6.25,0,0,0,.62-.66c.2-.25.45-.53.55-.52s.09.06.12.09a1.5,1.5,0,0,1-.1,1.22c-.14.37-.48,1.18-.54,1.31a8.12,8.12,0,0,1-3,2.55.18.18,0,0,0-.08.24.19.19,0,0,0,.16.09.15.15,0,0,0,.09,0,8.32,8.32,0,0,0,3.11-2.65s.35-.4.85-.89a.25.25,0,0,1,.35-.07A1.69,1.69,0,0,1,128,17.06Z"/><path class="cls-1" d="M67.64,64.19a1.24,1.24,0,0,0,0,1.73,1.13,1.13,0,1,0,0-1.73Zm8.48,13a.84.84,0,0,0,.85-.84.85.85,0,1,0-1.69,0A.84.84,0,0,0,76.12,77.2Zm.65-29.51H78.9V45.75H76.77ZM57.91,25.12A46.56,46.56,0,0,0,97.32,93.34V47.87ZM88.07,74.53H86.69c-1,0-1.39.33-2.28,1.14a2.15,2.15,0,0,0-.37,2.2H71.67a2.16,2.16,0,0,0-.36-2.2c-.9-.81-1.3-1.14-2.28-1.14H67.65L67.18,74H88.54Zm1.26-6.74s-2.72.77-3.58,2.27c-.56,1,.5,2.36,1.3,3.18H68.59c.8-.82,1.86-2.18,1.3-3.18-.86-1.5-3.58-2.27-3.58-2.27s-.86-5.45.85-6.1,4.92,3.45,4.92,3.45-1.26,2.89,0,4.43a12.32,12.32,0,0,0,4.56,3.24v-24H75.57V44.53h4.54v1h0v3.32H79v24a12.32,12.32,0,0,0,4.56-3.24c1.3-1.54,0-4.43,0-4.43s3.21-4.1,4.92-3.45S89.33,67.79,89.33,67.79Zm-3.09-3.35A1.13,1.13,0,1,0,88,64.19,1.24,1.24,0,0,0,86.24,64.44ZM79.59,77.2a.83.83,0,0,0,.84-.84.84.84,0,1,0-.84.84Z"/><path class="cls-1" d="M126.47,69.12a1.07,1.07,0,0,0-.31.06.11.11,0,0,0,0-.05L120.1,58.78l-.2.34,6,10.19,0,0a.89.89,0,0,0-.35.7.92.92,0,1,0,.92-.91Zm-7.75-12.71-6.14-10.5a.17.17,0,0,0-.23-.06.17.17,0,0,0-.07.24l6.24,10.66Zm7.6-10.61a.18.18,0,0,0-.24.07l-13.6,23.22a.86.86,0,0,0-.36-.08.91.91,0,1,0,.92.91.88.88,0,0,0-.27-.64L126.38,46A.18.18,0,0,0,126.32,45.8Zm14.2-20.68L101.11,47.87V93.34a46.56,46.56,0,0,0,39.41-68.22Zm-9.19,43.24-.09,0-1.24.68-1.73,1a2.08,2.08,0,0,1,.31,1.16,1.28,1.28,0,0,1,.54,1.16c.12.06.85.86.68,1.44.23.21.69.67.52,1.18a1.51,1.51,0,0,1,.78,1.32.59.59,0,0,1,.18.48,1.06,1.06,0,0,1-.52,1,.77.77,0,0,1-.41.11c-.64,0-1.1-.79-1.14-1.22-.25-.2-.94-1-.87-1.41-.49-.42-.73-.86-.65-1.2a2,2,0,0,1-.9-1,.68.68,0,0,1-.05-.43,4,4,0,0,1-1-1.15c-.25.2-1.18.75-2,1.2l-1.13.67-.1,0c-.26.16-.57.26-.75,0a7.11,7.11,0,0,1-.75-2.38v0l.07-.07c.18-.11.53.13.82.35a1.13,1.13,0,0,0,.28.19l2.57-1.53h0l-5.5-9.64h0l-5.51,9.67,2.59,1.53.25-.2a1.55,1.55,0,0,1,.71-.38l.11,0a.19.19,0,0,1,.08.11,7.13,7.13,0,0,1-.76,2.38c-.17.3-.49.2-.75,0l-.09,0-1.23-.72-1.88-1.11a4,4,0,0,1-1,1.11.67.67,0,0,1,0,.43,2.08,2.08,0,0,1-.9,1c.07.34-.16.79-.69,1.27.11.39-.59,1.14-.86,1.39,0,.38-.48,1.17-1.12,1.17a.73.73,0,0,1-.4-.11,1.07,1.07,0,0,1-.53-1,.63.63,0,0,1,.18-.48,1.53,1.53,0,0,1,.78-1.32c-.17-.51.3-1,.52-1.18-.16-.54.5-1.33.71-1.51a1.25,1.25,0,0,1,.55-1.16,1.68,1.68,0,0,1,.28-1.09l-1.72-1-1.26-.69-.09,0c-.16-.09-.35-.19-.4-.36a.36.36,0,0,1,.06-.31c.16-.28,1.39-1.85,1.77-1.85s.22.54.17.9a1,1,0,0,0,0,.33l2.62,1.43v0l6.43-10.74-6.38-11.18,0-2.06,1.78,1,6,9.95,5.94-9.93,1.81-1,0,2-6.39,11.22,6.44,10.76c.5-.26,2.56-1.4,2.65-1.45s0-.19-.05-.31c0-.36-.1-.77.1-.88h0c.46,0,1.67,1.55,1.83,1.83a.36.36,0,0,1,.06.31C131.68,68.17,131.49,68.27,131.33,68.36Z"/></g></g></svg>