<svg xmlns="http://www.w3.org/2000/svg" viewBox="0 0 257.78 146.71"><defs><style>.cls-1{fill:#231f20;}</style></defs><g id="Layer_2" data-name="Layer 2"><g id="Layer_1-2" data-name="Layer 1"><polygon class="cls-1" points="155.37 52.93 138.22 65.62 136.64 66.79 136.63 80.21 155.37 66.05 155.37 52.93"/><polygon class="cls-1" points="186.33 10.52 184.71 11.75 184.73 20.72 197.08 10.76 197.08 2.38 186.33 10.52"/><polygon class="cls-1" points="185.02 25.47 161.2 44.08 161.18 63.09 172.57 54.49 172.58 59.51 182.22 59.51 182.24 56.09 200.48 42.86 185.04 42.87 185.02 25.47"/><polygon class="cls-1" points="200.47 45.25 182.23 58.48 182.22 61.89 182.22 66.23 172.22 66.22 172.22 74.43 150.56 74.43 150.56 87.37 162.8 87.37 172.25 80.15 179.65 74.49 179.64 76.87 172.25 82.53 162.8 89.75 162.21 90.19 162.22 103.28 179.64 89.78 179.65 82.91 187.37 82.9 187.38 82.88 210.12 66.19 195.04 66.18 200.52 62.15 200.47 45.25"/><polygon class="cls-1" points="232.9 84.25 232.88 92.02 243.6 83.4 243.62 76.15 234.3 83.17 232.9 84.25"/><polygon class="cls-1" points="210.25 97.5 210.25 108.24 222.35 99.28 222.33 88.92 210.25 97.5"/><polygon class="cls-1" points="210.52 14.44 210.51 42.66 225.08 42.64 225.08 45.02 225.09 50.6 210.49 50.58 210.48 61.6 217.94 61.6 229.67 52.98 232.9 52.98 217.94 63.99 217.9 75.06 257.75 45.11 257.78 16.8 225.08 40.88 225.08 38.5 257.78 14.42 210.52 14.44"/><polygon class="cls-1" points="177.53 0 177.53 8.13 186.33 8.13 197.08 0 177.53 0"/><polygon class="cls-1" points="226.68 80.83 234.3 80.79 243.62 73.76 226.67 73.77 226.68 80.83"/><polygon class="cls-1" points="185.02 23.09 145.5 23.11 145.5 41.69 161.2 41.7 185.02 23.09"/><polygon class="cls-1" points="210.25 96.94 210.25 95.12 222.33 86.53 210.08 86.56 210.12 86.53 210.12 68.57 187.38 85.27 187.33 103.61 202.14 92.51 202.14 96.94 210.25 96.94"/><polygon class="cls-1" points="126.08 61.38 131.33 57.42 131.33 59.8 126.08 63.77 122.02 66.86 120.61 67.91 120.63 75.7 131.33 67.07 131.33 63.25 138.22 63.24 155.37 50.55 126.08 50.55 126.08 57.42 114.38 57.44 114.38 64.48 122.02 64.47 126.08 61.38"/><path class="cls-1" d="M14.51,140.41H11.13a4.29,4.29,0,0,1-3.91-4.35l.06-16.48h7.23c3.72,0,7.29,3.7,7.29,10.37s-3.57,10.46-7.29,10.46m0-27.15H7.28V101.62A1.68,1.68,0,0,0,5.37,100c-1,.13-5.37.06-5.37,2.25l.06,33.85c0,6.21,4.93,10.56,11.07,10.62h3.38C22.77,146.74,29,139.46,29,130s-6.26-16.69-14.52-16.69"/><path class="cls-1" d="M53.42,140.46H44.51a4.22,4.22,0,0,1,0-8.42h8.91Zm-3.9-27.15a31.93,31.93,0,0,0-8.72.78,1.63,1.63,0,0,0-1.39,1.6v2.68a1.72,1.72,0,0,0,2,1.67,34.59,34.59,0,0,1,8.13-.52,4.12,4.12,0,0,1,3.9,4.21v2.12H44.51c-6.13,0-11.18,4.33-11.18,10.39s5.05,10.44,11.18,10.44H58.9A1.72,1.72,0,0,0,60.64,145V123.73c0-6.13-5-10.42-11.12-10.42"/><path class="cls-1" d="M79.07,126.8c-1.79-.76-4.37-1.4-4.37-3.65a3.6,3.6,0,0,1,3.91-3.63,32.86,32.86,0,0,1,8.9.88,1.69,1.69,0,0,0,2-1.57V116.2c0-3-9.08-2.89-11-2.89-6.07,0-11.11,3.73-11.11,9.92s5.68,7.79,10.6,10c1.79.77,4.42,1.41,4.42,3.65a3.63,3.63,0,0,1-3.91,3.63,33.2,33.2,0,0,1-9.07-.89,1.73,1.73,0,0,0-2.12,1.61v2.6c0,3,9.34,2.89,11.19,2.89,6,0,11.14-3.7,11.14-9.91s-5.7-7.91-10.68-10"/><path class="cls-1" d="M110.42,113.45h-6.59V106a1.68,1.68,0,0,0-1.92-1.66c-.94.12-5.38,0-5.38,2.24l.07,29.53a10.41,10.41,0,0,0,11.2,10.54l2.68-.19a1.68,1.68,0,0,0,1.65-1.66v-2.75a1.66,1.66,0,0,0-1.71-1.67h-2.68a4.17,4.17,0,0,1-3.91-4.27V119.71h6.59a1.7,1.7,0,0,0,1.71-1.65v-3a1.66,1.66,0,0,0-1.71-1.65"/><path class="cls-1" d="M137.32,136.24a4.09,4.09,0,0,1-3.9,4.22h-5a4.15,4.15,0,0,1-4-4.22l.07-12.51a4.1,4.1,0,0,1,3.9-4.21h5a4.1,4.1,0,0,1,3.9,4.21Zm-3.9-22.93h-5c-6.13,0-11.12,4.37-11.12,10.42v12.51c-.07,6.08,5,10.44,11.05,10.44h5c6.13,0,11.13-4.36,11.13-10.44V123.73c0-6-5-10.42-11.13-10.42"/><path class="cls-1" d="M191.59,113.31h-3.52a1.87,1.87,0,0,0-1.79,1.35l-5.95,21.09-5.94-21.09a2,2,0,0,0-1.87-1.35h-3.05a2,2,0,0,0-1.86,1.35l-6,21.09-5.95-21.09a1.88,1.88,0,0,0-1.79-1.35h-3.51a1.42,1.42,0,0,0-1.47,1.86l8.5,30.16a1.88,1.88,0,0,0,1.79,1.35h4.86a1.84,1.84,0,0,0,1.78-1.35l5.13-18,5.11,18a1.87,1.87,0,0,0,1.79,1.35h4.85a1.88,1.88,0,0,0,1.81-1.35l8.5-30.16a1.43,1.43,0,0,0-1.47-1.86"/></g></g></svg>