<svg xmlns="http://www.w3.org/2000/svg" viewBox="0 0 183.54 205.78"><defs><style>.cls-1{fill:#231f20;}</style></defs><g id="Layer_2" data-name="Layer 2"><g id="Layer_1-2" data-name="Layer 1"><path class="cls-1" d="M178.13,76.71c-5.78-4.22-18.26-15.49-22.28-24.45-.25,1-.52,2-.82,3.06-.51,1.91-1.18,4.52-1.81,7.57,3.72,4.19,8.12,9.21,14,13.39A16,16,0,0,0,178.13,76.71Z"/><path class="cls-1" d="M183.52,119.51c0-.16,0-.3,0-.38s0,0,0,0,0,0,0,0a2.35,2.35,0,0,1-.71.57h0l0,0a4.24,4.24,0,0,1-1,.37h-.08a6.43,6.43,0,0,1-1.28.11,9.52,9.52,0,0,1-1.91-.21h0a16,16,0,0,1-2.16-.59h0a25.66,25.66,0,0,1-5-2.41l0,0h0c-.66-.41-1.33-.85-2-1.34h0a0,0,0,0,1,0,0h0a34.28,34.28,0,0,1-4.21-3.61l-.05,0h0c-.7-.71-1.39-1.46-2.06-2.25h0a40.79,40.79,0,0,1-3.66-5.1v0c-.56-.92-1.09-1.89-1.59-2.9h0l-.12-.25v0c-.48-1-.95-2-1.37-3.11h0v0c-5.29-3-10.69-5.84-16.09-8.7.1,1.24.24,2.5.44,3.77h0c.2,1.25.45,2.51.76,3.78a0,0,0,0,0,0,0,42.37,42.37,0,0,0,2.66,7.62h0c15.49,7.9,31.35,17.24,34,25,.36.91,2.17.88,3.38-.42l.15-.28s0,0,0,0c.11-.21.22-.4.32-.61.18-.38.35-.75.51-1.15.05-.13.09-.26.13-.4s.12-.35.17-.52.08-.23.11-.34c.12-.41.25-.81.34-1.22s.12-.63.18-1h0c0-.12,0-.25.07-.37.07-.43.14-.85.18-1.27a2.64,2.64,0,0,0,0-.28.49.49,0,0,0,0-.12c0-.34.06-.69.08-1s0-.72.05-1.07A.22.22,0,0,1,183.52,119.51Zm-3.14-1.17a2.39,2.39,0,0,0,1.7-.45l.33-.43a28.45,28.45,0,0,0-4.91-4.9,138.59,138.59,0,0,0-18.89-12.9C164.53,112.63,175.61,118.34,180.38,118.34ZM96.22,58.48A58.21,58.21,0,0,1,84.8,38.06c-4.21,3.13-8.94,6.64-14.21,10.58C81,70,100.69,82.76,115.81,90.9c5.24,2.82,15.09,7.3,25.44,12.49a46.56,46.56,0,0,1-3.24-15C123.19,80.53,108.51,72.09,96.22,58.48Z"/><path class="cls-1" d="M144.14,195.9l-.09.07,0,0,.06-.05Z"/><path class="cls-1" d="M183.5,119c-3.71,4.76-26.94-5.19-30.2-31.71-1-8.28.09-16.62,1.4-23,.63-3.06,1.3-5.67,1.81-7.58.29-1.08.56-2.1.82-3.06,2.84-10.73,3.88-13.14,1.21-17.26h0a32.35,32.35,0,0,0-3.11-3.93c-.35-.37-1.91-1.74-2.33-2,1.09,2.3,1.32,7-5.74,24.5-.88,2.18-1.88,4.56-3,7.16-2.81,6.35-10.25,30.11,3.1,48.92,13.17,18.56,27.14,19.76,28.91,19.85a7.71,7.71,0,0,0,4.44-.88,19.51,19.51,0,0,0,2.73-10.13C183.52,119.36,183.5,119.05,183.5,119Z"/><path class="cls-1" d="M110,3.13a2.21,2.21,0,0,0-1-2.47C99-2.73,69.15,6.88,66.59,29.71a28,28,0,0,0,.08,6.85c7.42-5.1,12.22-8.21,16.86-11.4C86.57,12.66,100.28,4.43,110,3.13Z"/><path class="cls-1" d="M46.18,110.44h1.66l.06-.08c2.17-3.14,4.75-7.8,5.31-10.12l.07-.24h-2l0,.15a38.14,38.14,0,0,1-3.9,7.82,36.61,36.61,0,0,1-1.1-7.82v-.21l-1.67.14h-.18v.18a39.94,39.94,0,0,0,1.71,10Z"/><path class="cls-1" d="M54.52,110.64l.07-.13.67-1.22.11-.19-.2-.09a1.27,1.27,0,0,1-.67-1.32,5.33,5.33,0,0,1,.1-1l.85-4.53H53.71l-.82,4.38a7.57,7.57,0,0,0-.14,1.41c0,1.34.47,2.34,1.62,2.63Z"/><path class="cls-1" d="M54.82,101.13a1,1,0,0,0,1.06-1.06,1.06,1.06,0,1,0-2.11,0A1,1,0,0,0,54.82,101.13Z"/><path class="cls-1" d="M59.15,110.61a3.91,3.91,0,0,0,2.9-1.26l.09-.09-.56-1.38-.12-.28-.2.22a2.85,2.85,0,0,1-1.89,1c-1,0-1.48-.76-1.5-2a2.8,2.8,0,0,1,2.64-3.07,3.49,3.49,0,0,1,1.36.24l.21.1.06-.23.36-1.42,0-.18-.18,0a6.45,6.45,0,0,0-1.72-.22c-2.61,0-4.58,2-4.59,5C56.07,109,57.17,110.6,59.15,110.61Z"/><path class="cls-1" d="M63.75,106.58a7.91,7.91,0,0,0-.14,1.12,2.59,2.59,0,0,0,2.23,2.9l.14,0,.71-1.34.13-.25-.27,0a1.44,1.44,0,0,1-1.16-1.58,6.24,6.24,0,0,1,.09-.78l.47-2.53h1.69l0-.17.23-1.27,0-.23H66.26l.48-2.54-1.87.71-.35,1.83h-1.2l-.27,1.44,0,.23h1.21Z"/><path class="cls-1" d="M72.24,102c-2.49,0-4.33,2.3-4.33,5,0,2.14,1.19,3.64,3.19,3.65h0c2.46,0,4.3-2.31,4.31-4.9C75.41,103.59,74.25,102,72.24,102Zm-.16,1.69c1,0,1.5.92,1.52,2.08,0,1.56-.95,3.13-2.38,3.14-1,0-1.51-.93-1.52-2.08C69.7,105.25,70.71,103.69,72.08,103.69Z"/><path class="cls-1" d="M75.74,110.44h1.75l1.07-5.79c.62-.64,1-.81,1.42-.82a2,2,0,0,1,.44.06l.21.06,0-.23.16-1.46,0-.16-.15,0a1.37,1.37,0,0,0-.4,0,2.37,2.37,0,0,0-1.83.84,2.33,2.33,0,0,0-.28-.78l-.09-.14-1.41.59-.21.08.11.21A2.16,2.16,0,0,1,76.9,104a3,3,0,0,1-.06.58Z"/><path class="cls-1" d="M82.58,110.6l.14,0,.08-.13.67-1.22.11-.19-.2-.09a1.29,1.29,0,0,1-.68-1.32,5.33,5.33,0,0,1,.1-1l.86-4.53H81.92l-.83,4.38A7.59,7.59,0,0,0,81,108C80.94,109.31,81.43,110.31,82.58,110.6Z"/><path class="cls-1" d="M83,101.13a1,1,0,0,0,1-1.06,1.05,1.05,0,1,0-2.1,0A1,1,0,0,0,83,101.13Z"/><path class="cls-1" d="M87.05,110.61a3.35,3.35,0,0,0,2.1-.89,2,2,0,0,0,1.34.88l.15,0,.07-.13.64-1.17.12-.22-.23-.07a.89.89,0,0,1-.7-1,3.29,3.29,0,0,1,0-.49l.89-4.91-.12-.07a5.29,5.29,0,0,0-2.51-.61c-2.67,0-4.58,2.38-4.58,5.29C84.26,109.34,85.32,110.6,87.05,110.61Zm-1-3.44c0-1.74,1-3.48,2.61-3.48a3.13,3.13,0,0,1,.88.15l-.83,4.35a2.68,2.68,0,0,1-1.49.72C86.56,108.89,86.09,108.48,86.07,107.17Z"/><path class="cls-1" d="M92.27,110.44H94l1.11-6a3.18,3.18,0,0,1,1.72-.71c.5,0,.92.22.92.82a4.07,4.07,0,0,1-.1.71l-.53,2.54a6.13,6.13,0,0,0-.09.85,1.84,1.84,0,0,0,1.71,2l.14,0,.69-1.32.11-.22-.24-.06c-.45-.13-.58-.33-.6-.87a2.45,2.45,0,0,1,0-.43l.52-2.61h0a5.05,5.05,0,0,0,.11-1A2.08,2.08,0,0,0,97.3,102a4.2,4.2,0,0,0-2.32.74,2.94,2.94,0,0,0-.27-.67l-.09-.15-1.41.59-.22.08.12.21a2.09,2.09,0,0,1,.32,1.15,3,3,0,0,1-.06.58Z"/><path class="cls-1" d="M48.84,116.53a13.62,13.62,0,0,0-3.12.35l-.13,0-1.75,9.93.18,0a13,13,0,0,0,3.28.4,5.93,5.93,0,0,0,6.17-6.21A4.29,4.29,0,0,0,48.84,116.53Zm-.32,1.76c1.72,0,3,.72,3,2.81,0,2.69-1.59,4.41-4.07,4.43a10,10,0,0,1-1.53-.12l1.25-7A9,9,0,0,1,48.52,118.29Z"/><path class="cls-1" d="M57.87,118.67c-2.46,0-3.95,2.4-3.95,5,0,2.07,1.09,3.64,3.07,3.64A4.41,4.41,0,0,0,60,126l.1-.1-.62-1.28-.13-.27-.19.22a3,3,0,0,1-2.07,1c-1,0-1.45-.82-1.47-1.77,0,0,0-.15,0-.26a18.73,18.73,0,0,0,4.81-1.27l.12,0v-.7A2.72,2.72,0,0,0,57.87,118.67Zm-2,3.41c.24-1,.91-1.91,1.84-1.9a1.13,1.13,0,0,1,1.19,1.15"/><path class="cls-1" d="M68.3,119.36l-.12-.07a5.46,5.46,0,0,0-2.52-.62c-2.66,0-4.58,2.39-4.58,5.3,0,2,1.06,3.32,2.79,3.32a3.35,3.35,0,0,0,2.1-.89,2.09,2.09,0,0,0,1.34.89l.15,0,.07-.13.65-1.17.11-.22-.23-.06a.9.9,0,0,1-.7-1c0-.09,0-.33,0-.49Zm-1.92,1.16-.83,4.35a2.62,2.62,0,0,1-1.49.72c-.68,0-1.15-.42-1.18-1.74,0-1.74,1.06-3.48,2.62-3.48A3.13,3.13,0,0,1,66.38,120.52Z"/><path class="cls-1" d="M74.93,115.31h-.18a3.74,3.74,0,0,0-4,3.38l-.08.41h-1l-.27,1.43,0,.23h1L68.87,129h1.76l1.53-8.26h2.08l.25-1.42,0-.24H72.45l.06-.33h0c.26-1.18,1-1.69,2.38-1.74h.22L75,115.49Z"/><polygon class="cls-1" points="76.92 127.12 83.02 127.12 83.27 125.59 83.31 125.36 79.11 125.36 79.59 122.59 83.43 122.59 83.71 121.06 83.75 120.83 79.91 120.83 80.33 118.44 83.87 118.44 83.91 118.28 84.14 116.91 84.19 116.67 78.77 116.67 76.92 127.12"/><path class="cls-1" d="M91.05,124l1.6-8.57H90.93l-.62,3.3a10.31,10.31,0,0,0-1.16-.09c-2.55,0-4.59,2.21-4.59,5.31,0,1.92,1,3.31,2.78,3.31a3.66,3.66,0,0,0,2.26-.91,2.08,2.08,0,0,0,1.36.91l.15,0,.69-1.3.11-.2-.21-.08a1,1,0,0,1-.71-1c0-.09,0-.53.06-.71Zm-2-3.66a5.73,5.73,0,0,1,1,.12l-.83,4.36a2.76,2.76,0,0,1-1.65.72c-.77,0-1.16-.58-1.18-1.72C86.35,122,87.5,120.37,89,120.37Z"/><path class="cls-1" d="M100.11,118.86H98.37l-1.12,6.06a3,3,0,0,1-1.64.65c-.78,0-.93-.26-1-.89a12.14,12.14,0,0,1,.16-1.31l.86-4.51H93.93l-.88,4.66a8.3,8.3,0,0,0-.18,1.44,2.14,2.14,0,0,0,2.32,2.33,4.56,4.56,0,0,0,2.49-.89,1.91,1.91,0,0,0,1.1.88l.14,0,.83-1.22.13-.18-.2-.11a1.08,1.08,0,0,1-.62-1.08c0-.16.06-.56.08-.71Z"/><path class="cls-1" d="M105.34,118.67a4.64,4.64,0,0,0-4.58,5c0,2,1.11,3.64,3.08,3.64a4,4,0,0,0,2.9-1.25l.09-.09-.56-1.38-.11-.29-.21.22a2.85,2.85,0,0,1-1.88,1c-1,0-1.49-.77-1.5-2a2.79,2.79,0,0,1,2.64-3.08,3.47,3.47,0,0,1,1.35.24l.22.09.06-.23.36-1.41,0-.18-.19-.06A6.88,6.88,0,0,0,105.34,118.67Z"/><path class="cls-1" d="M114.53,119.36l-.11-.07a5.49,5.49,0,0,0-2.52-.62c-2.67,0-4.58,2.39-4.58,5.3,0,2,1.06,3.32,2.79,3.32a3.35,3.35,0,0,0,2.1-.89,2,2,0,0,0,1.34.89l.15,0,.07-.13.64-1.17.11-.21-.22-.07a.9.9,0,0,1-.7-1,2.45,2.45,0,0,1,.05-.49Zm-1.91,1.16-.83,4.35a2.68,2.68,0,0,1-1.5.72c-.68,0-1.14-.42-1.17-1.74,0-1.74,1-3.48,2.61-3.48A3.25,3.25,0,0,1,112.62,120.52Z"/><path class="cls-1" d="M119.24,116.58l-1.87.71-.35,1.82h-1.2l-.27,1.44,0,.24h1.2l-.44,2.46a7.35,7.35,0,0,0-.15,1.13,2.61,2.61,0,0,0,2.23,2.91l.14,0,.71-1.34.13-.26-.28,0a1.44,1.44,0,0,1-1.15-1.58,6.25,6.25,0,0,1,.08-.78l.47-2.53h1.7l0-.17.23-1.27,0-.24h-1.68Z"/><path class="cls-1" d="M122.79,115.67a1.05,1.05,0,0,0-1.06,1.07,1.05,1.05,0,1,0,1.06-1.07Z"/><path class="cls-1" d="M123.41,118.86h-1.74l-.82,4.38a6.84,6.84,0,0,0-.14,1.42c0,1.33.47,2.33,1.61,2.62l.15,0,.08-.13.67-1.22.11-.19-.2-.09c-.42-.19-.67-.56-.67-1.32a5.23,5.23,0,0,1,.09-1Z"/><path class="cls-1" d="M128.35,118.67c-2.49,0-4.32,2.31-4.32,5,0,2.14,1.19,3.65,3.18,3.65h0c2.47,0,4.31-2.3,4.31-4.9C131.52,120.27,130.36,118.68,128.35,118.67Zm-1,6.92c-1,0-1.5-.93-1.52-2.07,0-1.58,1-3.15,2.39-3.15,1,0,1.5.92,1.52,2.08C129.72,124,128.77,125.59,127.33,125.59Z"/><path class="cls-1" d="M139.05,125.71c-.45-.13-.58-.33-.62-.87a3,3,0,0,1,.06-.44l.52-2.6h0a5.24,5.24,0,0,0,.11-1,2.11,2.11,0,0,0-2.22-2.16,4.22,4.22,0,0,0-2.33.75,3.44,3.44,0,0,0-.26-.67l-.09-.16-1.42.6-.21.08.11.21a2.17,2.17,0,0,1,.31,1.15,4.33,4.33,0,0,1,0,.58l-1.11,5.91h1.76l1.1-6.05a3.29,3.29,0,0,1,1.73-.7c.49,0,.91.22.92.82a5.36,5.36,0,0,1-.1.71l-.52,2.54a4.13,4.13,0,0,0-.11.85,1.86,1.86,0,0,0,1.72,2l.14,0,.68-1.32.12-.22Z"/><path class="cls-1" d="M45.5,143.27H44l1.77-10.05h1.47Z"/><path class="cls-1" d="M54.31,138.11l-.53,2.61c0,.18-.05.33-.05.47a1,1,0,0,0,.76,1.06l-.62,1.19a1.63,1.63,0,0,1-1.54-1.8,6,6,0,0,1,.08-.82l.53-2.53a4.45,4.45,0,0,0,.11-.76,1,1,0,0,0-1.12-1,3.49,3.49,0,0,0-1.9.8l-1.1,6H47.58l1.07-5.68a3.49,3.49,0,0,0,.06-.61,2.46,2.46,0,0,0-.35-1.26l1.27-.53a2.46,2.46,0,0,1,.29.9,4.22,4.22,0,0,1,2.46-.87,1.87,1.87,0,0,1,2,1.95A4.83,4.83,0,0,1,54.31,138.11Z"/><path class="cls-1" d="M60.46,136.93a4.39,4.39,0,0,0-1.78-.46c-.72,0-1.36.31-1.36,1,0,1.14,2.83,1.69,2.83,3.63,0,1.58-1.27,2.33-2.75,2.33a3.82,3.82,0,0,1-2.26-.67l.52-1.24a3.15,3.15,0,0,0,1.86.64c.63,0,1.2-.31,1.2-1,0-1.13-2.77-1.65-2.77-3.53,0-1.69,1.33-2.46,2.86-2.46a5.33,5.33,0,0,1,2,.39Z"/><path class="cls-1" d="M65.76,136.93h-1.7l-.5,2.71a6.26,6.26,0,0,0-.09.81,1.63,1.63,0,0,0,1.33,1.77l-.65,1.22a2.39,2.39,0,0,1-2.06-2.7,7.85,7.85,0,0,1,.14-1.1l.49-2.71H61.53l.23-1.27H63l.37-1.88,1.43-.54-.46,2.42H66Z"/><path class="cls-1" d="M68.05,143.44c-1-.28-1.47-1.13-1.47-2.44a7.06,7.06,0,0,1,.13-1.37l.8-4.22h1.34L68,139.69a5.92,5.92,0,0,0-.1,1,1.48,1.48,0,0,0,.79,1.5Zm.4-9.48a.81.81,0,0,1-.85-.87.86.86,0,1,1,.85.87Z"/><path class="cls-1" d="M74.26,136.93H72.57l-.5,2.71a4.89,4.89,0,0,0-.09.81,1.63,1.63,0,0,0,1.32,1.77l-.65,1.22a2.39,2.39,0,0,1-2.05-2.7,7.64,7.64,0,0,1,.13-1.1l.49-2.71H70l.25-1.27h1.19l.37-1.88,1.44-.54-.47,2.42h1.68Z"/><path class="cls-1" d="M80.82,140.33a4.31,4.31,0,0,0-.08.75,1.27,1.27,0,0,0,.71,1.26l-.75,1.1a1.71,1.71,0,0,1-1.08-1,4.56,4.56,0,0,1-2.57,1,1.9,1.9,0,0,1-2.11-2.14,8.72,8.72,0,0,1,.16-1.39l.86-4.5H77.3l-.82,4.27a10.19,10.19,0,0,0-.16,1.36c0,.69.32,1.08,1.16,1.08a3.2,3.2,0,0,0,1.81-.75l1.11-6h1.34Z"/><path class="cls-1" d="M87.06,136.93h-1.7l-.49,2.71a5,5,0,0,0-.1.81,1.64,1.64,0,0,0,1.33,1.77l-.65,1.22a2.39,2.39,0,0,1-2.06-2.7,7.64,7.64,0,0,1,.13-1.1l.5-2.71h-1.2l.24-1.27h1.2l.36-1.88,1.45-.54-.47,2.42h1.68Z"/><path class="cls-1" d="M88.84,139.75c0,.14,0,.34,0,.42,0,1,.52,2,1.67,2a3.1,3.1,0,0,0,2.2-1.1l.56,1.16a4.22,4.22,0,0,1-2.92,1.23c-1.84,0-2.87-1.43-2.87-3.44,0-2.52,1.46-4.78,3.76-4.78a2.5,2.5,0,0,1,2.54,2.68v.56A18.79,18.79,0,0,1,88.84,139.75Zm2.21-3.42c-1.16,0-1.91,1.18-2.08,2.33a15,15,0,0,0,3.47-.85A1.34,1.34,0,0,0,91.05,136.33Z"/><path class="cls-1" d="M146.44,52.37c4.21-10.71,5.95-17.42,5.26-20.44,0-.1,0-.21-.08-.31a2.29,2.29,0,0,0-.15-.42h0a3.09,3.09,0,0,0-3.77-2.25l-.08,0c-3.95,1.43-7.37,6.85-4.27,16.49A40.76,40.76,0,0,0,146.44,52.37Z"/><path class="cls-1" d="M39,172c-5.38-.69-10.74-1.48-16.1-2.43C10,167.29,4.19,164.37.22,161.27L0,163.37a11.14,11.14,0,0,0,1.81,6.37c3.61,6,14.24,8.25,20.16,9.45,11.72,2.38,18.57,2.32,27.88,3.09A100.7,100.7,0,0,1,39,172Zm72.5,9.38c-16.3-3.42-32.73-5.07-49.18-6.77a115.47,115.47,0,0,0,15.09,10c3,.31,6,.64,9,1,24.78,3.21,36.56,6.59,38.68,7.27h0c.58.19,12.28,2.94,11.74,6.5a20.15,20.15,0,0,0,7.24-3.53l.06-.05h0C147,193.27,146.51,188.5,111.5,181.41Zm-52.58-7.12.23.19-.21-.19Zm13.83,9.9h0l-.43-.25Z"/><path class="cls-1" d="M33.63,92.08C41.49,69.5,60.13,54,66.4,49.26l1.11-.82,0,.1c11.18-8.36,19.94-14.83,26.8-19.92l0-.09c17.26-12.83,22.21-16.8,23.25-20.31a6.79,6.79,0,0,0,.31-2.4c0-1.35-2.53-3.1-8.79-5.16,0,0,2.36,1.37,0,4.25a51.18,51.18,0,0,1-6.2,6.18c-2.54,2.21-6.51,5.06-17,12.34l0,.08L83.57,25a.17.17,0,0,0,0-.07L55.37,44.34C19.6,69.33,11,103.9,15.61,126.1,30.59,198.23,115.92,221,144.05,196,119.23,215.8,6.93,173.92,33.63,92.08Z"/></g></g></svg>