<svg xmlns="http://www.w3.org/2000/svg" viewBox="0 0 253.19 153.54"><defs><style>.cls-1{fill:#231f20;}</style></defs><g id="Layer_2" data-name="Layer 2"><g id="Layer_1-2" data-name="Layer 1"><path class="cls-1" d="M130.11,54.7l11.6-30.95h8.15l11.68,31h-9l-2.07-5.79h-9.61l-2,5.79ZM148.32,42c-1.68-4.67-2.25-6.38-2.73-8-.45,1.34-1,3.1-2.65,8Z"/><path class="cls-1" d="M178.27,54.7V51.65c-1,2.29-3.57,3.59-6.75,3.59-5.11,0-10.62-3.55-10.62-11.81,0-8.67,6.17-11.95,10.62-11.95,2.87,0,4.94.71,6.48,2.38V23.94h7.5V54.7ZM178,40.64a4.46,4.46,0,0,0-4.32-3c-2.47,0-5,1.44-5,5.66s2.47,5.53,4.9,5.53A4.57,4.57,0,0,0,178,45.67Z"/><path class="cls-1" d="M203,54.7V51.47a7.66,7.66,0,0,1-7,3.81c-4.14,0-6.39-1.93-7.14-4.85a19.51,19.51,0,0,1-.49-5V32.15H196V43.92a9.16,9.16,0,0,0,.4,3,2.54,2.54,0,0,0,2.6,1.48A4,4,0,0,0,202.8,46V32.15h7.58V54.7Z"/><path class="cls-1" d="M213.57,54.7V23.94h7.54V54.7Z"/><path class="cls-1" d="M233.56,55.19c-2.82,0-4.76-.94-5.82-2.24s-1.59-3.28-1.59-5.84V38h-2.9V32.15h2.95s0-.58.26-6.15h7.28v6.15h4.58V38h-4.58v7.82a4.17,4.17,0,0,0,.44,2.29,2.33,2.33,0,0,0,2.07.85,6.22,6.22,0,0,0,2.65-.58h.17v5.75A13,13,0,0,1,233.56,55.19Z"/><path class="cls-1" d="M137.8,153.54l-7.69-19.44h3c4.27,11.38,4.93,12.3,6,15.54,1.08-3.21,1.85-4.19,6-15.54h2.94l-7.78,19.44Z"/><path class="cls-1" d="M162.22,153.54a7.51,7.51,0,0,1-7.78-7.74,7.77,7.77,0,0,1,8.05-7.93c1.84,0,3.82.54,4.72,1.53v2.91h-.12a6.31,6.31,0,0,0-4.66-1.89,5.3,5.3,0,0,0,.06,10.6,6,6,0,0,0,4.66-1.83h.12V152A7.92,7.92,0,0,1,162.22,153.54Z"/><path class="cls-1" d="M175.79,153.54a4.39,4.39,0,0,1-3.4-1.44,6.12,6.12,0,0,1-.81-3.69V140.6h-2.34v-2.25h2.37s0-.15.12-4.33h2.62v4.33h4.14v2.25h-4.14v7.48a4.18,4.18,0,0,0,.39,2.16,2.17,2.17,0,0,0,1.86.72,4.43,4.43,0,0,0,2.28-.63H179v2.49A6.3,6.3,0,0,1,175.79,153.54Z"/><path class="cls-1" d="M187.64,153.54a7.59,7.59,0,0,1-7.78-7.83,7.72,7.72,0,0,1,7.87-7.84,7.45,7.45,0,0,1,7.78,7.84A7.66,7.66,0,0,1,187.64,153.54Zm.06-13.15a5,5,0,0,0-5,5.32,5,5,0,1,0,10,0C192.69,142.76,190.74,140.39,187.7,140.39Z"/><path class="cls-1" d="M197.05,153.54V138.68h2.74V141a4.24,4.24,0,0,1,4.14-2.7,3,3,0,0,1,1.78.45v2.85h-.12a3.46,3.46,0,0,0-1.9-.45c-2.16,0-3.36,1-3.87,2.25v10.18Z"/><path class="cls-1" d="M149.27,153.54V138.68h2.8v14.86Z"/><rect class="cls-1" x="149.27" y="134.25" width="2.79" height="2.22"/><path class="cls-1" d="M207.88,153.54V138.68h2.79v14.86Z"/><rect class="cls-1" x="207.88" y="134.25" width="2.79" height="2.22"/><path class="cls-1" d="M130.11,90.89V59.94h11.33a24.67,24.67,0,0,1,7.19.86c3.88,1.21,6.65,4.13,6.65,9.79,0,4.9-2.24,8.17-6.08,9.79a22.1,22.1,0,0,1-7.93,1.35h-2.91v9.16ZM141,75.13a9.41,9.41,0,0,0,3.79-.63,3.84,3.84,0,0,0,0-6.79,11.08,11.08,0,0,0-3.88-.54h-2.51v8Z"/><path class="cls-1" d="M178.3,91.25V68h7.59v3.66a5.87,5.87,0,0,1,5.73-4.17,4.73,4.73,0,0,1,2.73.6v7.46h-.18a6.29,6.29,0,0,0-3.23-.83c-2.59,0-4.32,1.11-4.82,3.42V91.25Z"/><path class="cls-1" d="M207,91.48c-7.19,0-12-4.9-12-11.86s5.27-11.91,12.12-11.91c7.14,0,11.9,4.86,11.9,11.86S214.14,91.48,207,91.48ZM207,74.05c-2.76,0-4.67,2.29-4.67,5.57,0,3.5,2,5.52,4.67,5.52,2.85,0,4.55-2.29,4.55-5.52S209.89,74.05,207,74.05Z"/><path class="cls-1" d="M221,90.89V60.13h7.54V90.89Z"/><path class="cls-1" d="M243.05,91.48c-7.63,0-12.34-4.58-12.34-11.77,0-7.68,5.51-12,11.85-12,6.62,0,10.54,3.82,10.63,10.83,0,.81,0,2.16-.13,2.92H238.29c.53,2.47,2.64,3.77,6,3.77a12.62,12.62,0,0,0,7.49-2.33H252v6.2A16.39,16.39,0,0,1,243.05,91.48Zm3.31-14.65c0-2.15-1.55-3.41-3.75-3.41a4.17,4.17,0,0,0-4.28,3.68h8Z"/><path class="cls-1" d="M175.39,73.47a6.34,6.34,0,0,0-2-3.65c-1.37-1.25-3.84-2.11-7.19-2.11A17.31,17.31,0,0,0,157,70.36v6.16h.18a12.69,12.69,0,0,1,7.45-2.47,4.09,4.09,0,0,1,3,.9,2.47,2.47,0,0,1,.66,1.84v.67a12.5,12.5,0,0,0-2.64-.27,17.33,17.33,0,0,0-5.91.81,6.34,6.34,0,0,0-4.49,6.29c0,4.63,3.26,7.19,7.84,7.19,2.47,0,4.63-.68,6-2.74.84,1.7,3,2.6,5.34,2.6.32,0,.64,0,1,0ZM165,86.27c-1.63,0-2.6-.77-2.6-2.11A1.91,1.91,0,0,1,164,82.31a7.35,7.35,0,0,1,2.51-.31,10,10,0,0,1,1.76.13c0,1.71,0,2,.05,2.61A4.14,4.14,0,0,1,165,86.27Z"/><path class="cls-1" d="M130.11,95.49h10.94c1.45,0,3.39.09,4.62.18,4.59.4,8.42,2.65,8.42,7.37,0,3.63-1.58,5.75-4.93,7.18,4.1.68,6.61,3,6.61,7.28a8.23,8.23,0,0,1-5.78,8,29.38,29.38,0,0,1-8.33.9H130.11Zm10.76,12a12.9,12.9,0,0,0,3.61-.31,2.34,2.34,0,0,0,1.63-2.47c0-1.3-.61-2.07-2.2-2.43a15,15,0,0,0-3.09-.18h-2.46v5.39Zm.4,12.36a15.88,15.88,0,0,0,4.14-.32,2.55,2.55,0,0,0,2-2.78,2.65,2.65,0,0,0-2-2.65,12.52,12.52,0,0,0-3.8-.32h-3.21v6.07Z"/><path class="cls-1" d="M169,127c-7.18,0-12-4.89-12-11.86s5.28-11.9,12.12-11.9c7.14,0,11.91,4.85,11.91,11.86S176.22,127,169,127Zm.09-17.43c-2.76,0-4.68,2.3-4.68,5.57,0,3.51,2,5.53,4.68,5.53,2.85,0,4.55-2.29,4.55-5.53S172,109.59,169.12,109.59Z"/><path class="cls-1" d="M205.62,126.8V103.55h7.59v3.65a5.87,5.87,0,0,1,5.73-4.16,4.66,4.66,0,0,1,2.73.6v7.46h-.18a6.33,6.33,0,0,0-3.23-.84c-2.59,0-4.32,1.11-4.82,3.43V126.8Z"/><path class="cls-1" d="M239.65,126.44v-3c-1,2.29-3.57,3.59-6.74,3.59-5.11,0-10.63-3.55-10.63-11.82,0-8.66,6.18-11.94,10.63-11.94,2.86,0,4.94.71,6.48,2.38V95.67h7.49v30.77Zm-.3-14.06a4.47,4.47,0,0,0-4.32-3c-2.47,0-5,1.44-5,5.66s2.47,5.53,4.89,5.53a4.58,4.58,0,0,0,4.46-3.15Z"/><path class="cls-1" d="M202.67,109.22a6.42,6.42,0,0,0-2.06-3.85c-1.37-1.26-3.84-2.11-7.19-2.11a17.22,17.22,0,0,0-9.21,2.65v6.16h.18a12.71,12.71,0,0,1,7.45-2.48,4.14,4.14,0,0,1,3,.9,2.45,2.45,0,0,1,.67,1.84V113a12.67,12.67,0,0,0-2.65-.27,17.33,17.33,0,0,0-5.91.81,6.33,6.33,0,0,0-4.49,6.29c0,4.62,3.26,7.18,7.84,7.18,2.47,0,4.63-.67,6-2.74.84,1.71,3,2.61,5.34,2.61.34,0,.67,0,1,0Zm-10.44,12.59c-1.63,0-2.6-.76-2.6-2.11a1.9,1.9,0,0,1,1.59-1.84,7.37,7.37,0,0,1,2.51-.31,10.16,10.16,0,0,1,1.77.13c0,1.71,0,2,0,2.61A4.15,4.15,0,0,1,192.23,121.81Z"/><path class="cls-1" d="M225.37,143.66c0-2.43-.51-3.72-1.59-4.62a6.17,6.17,0,0,0-4-1.17,9.69,9.69,0,0,0-5.77,1.77v2.64h.12a8.08,8.08,0,0,1,5.11-1.8,3.48,3.48,0,0,1,2.7,1,3.26,3.26,0,0,1,.66,2.16v.81a13,13,0,0,0-1.86-.15,12.72,12.72,0,0,0-4.81.66,4.18,4.18,0,0,0-3,4.06c0,2.58,2,4.56,5.29,4.56a5.34,5.34,0,0,0,4.77-2.16,2.47,2.47,0,0,0,2.39,2S225.37,144.77,225.37,143.66Zm-6.54,7.45c-1.72,0-3-.81-3-2.19a2.16,2.16,0,0,1,1.77-2.16,10.44,10.44,0,0,1,3-.33,15.62,15.62,0,0,1,2,.18c0,1.71,0,2.13,0,2.64A4.65,4.65,0,0,1,218.83,151.11Z"/><path class="cls-1" d="M88.71,11.24l19.48,11.25V0Zm-.9,1.56V35.29l19.47-11.24Zm20.38,35.29V25.61L88.71,36.85ZM58.33,29.83V49.5l17-9.84ZM76.26,83.69V64l-17,9.83Zm0-45.59V18.43l-17,9.84Zm31.93,61.21V76.83L88.71,88.07ZM87.81,89.63v22.49l19.47-11.24Zm20.38,35.29V102.44L88.71,113.68ZM87.81,38.41V60.9l19.47-11.24Zm0,25.61V86.51l19.47-11.24ZM58.33,52.62V72.29l17-9.83ZM108.19,73.7V51.22L88.71,62.46ZM14.74,55V69.93l12.93-7.47ZM28.57,79V64L15.64,71.49ZM34.26,64V81.17l14.86-8.58ZM28.57,60.9V46L15.64,53.43ZM50,71V53.87L35.16,62.45ZM9.85,68.15V56.77L0,62.46Zm66.41,38.33V86.81l-17,9.84Zm0-45.59V41.23l-17,9.83ZM58.33,75.41V95.08l17-9.83ZM50,50.74V33.58L35.16,42.16Zm-15.76-7V60.89l14.86-8.58ZM50,91.31V74.15L35.16,82.73Z"/></g></g></svg>