<svg xmlns="http://www.w3.org/2000/svg" xmlns:xlink="http://www.w3.org/1999/xlink" viewBox="0 0 193.07 138.07"><defs><style>.cls-1,.cls-5{fill:none;}.cls-2{fill:#231f20;}.cls-3{fill:#fff;}.cls-4{clip-path:url(#clip-path);}.cls-5{stroke:#231f20;stroke-miterlimit:10;stroke-width:3px;}</style><clipPath id="clip-path" transform="translate(18.95)"><polygon class="cls-1" points="118.12 78.98 40.7 35.3 84.38 112.72 97.41 99.68 111.4 113.67 119.07 106 105.08 92.01 118.12 78.98"/></clipPath></defs><g id="Layer_2" data-name="Layer 2"><g id="Layer_1-2" data-name="Layer 1"><rect class="cls-2" x="18.95" width="70.59" height="70.59"/><polygon class="cls-3" points="137.07 78.98 59.64 35.3 103.32 112.72 116.36 99.68 130.34 113.67 138.01 106 124.03 92.01 137.07 78.98"/><g class="cls-4"><line class="cls-5" x1="166.44" y1="4.97" x2="94.11" y2="137.35"/><line class="cls-5" x1="174.88" y1="4.97" x2="102.55" y2="137.35"/><line class="cls-5" x1="158.01" y1="4.97" x2="85.68" y2="137.35"/><line class="cls-5" x1="183.32" y1="4.97" x2="110.98" y2="137.35"/><line class="cls-5" x1="191.75" y1="4.97" x2="119.42" y2="137.35"/><line class="cls-5" x1="149.57" y1="4.97" x2="77.24" y2="137.35"/><line class="cls-5" x1="141.14" y1="4.97" x2="68.8" y2="137.35"/><line class="cls-5" x1="132.7" y1="4.97" x2="60.37" y2="137.35"/><line class="cls-5" x1="124.26" y1="4.97" x2="51.93" y2="137.35"/><line class="cls-5" x1="115.83" y1="4.97" x2="43.5" y2="137.35"/><line class="cls-5" x1="107.39" y1="4.97" x2="35.06" y2="137.35"/><line class="cls-5" x1="98.96" y1="4.97" x2="26.62" y2="137.35"/><line class="cls-5" x1="90.52" y1="4.97" x2="18.19" y2="137.35"/><line class="cls-5" x1="82.08" y1="4.97" x2="9.75" y2="137.35"/><line class="cls-5" x1="73.65" y1="4.97" x2="1.32" y2="137.35"/></g></g></g></svg>