<svg id="Layer_1" data-name="Layer 1" xmlns="http://www.w3.org/2000/svg" viewBox="0 0 73.2 66.76"><circle cx="36.6" cy="33.38" r="7.79"/><path d="M65.41,0A7.79,7.79,0,1,0,73.2,7.79,7.8,7.8,0,0,0,65.41,0Z"/><path d="M36.6,51.18A7.79,7.79,0,1,0,44.39,59,7.79,7.79,0,0,0,36.6,51.18Z"/><path d="M65.41,66.76A7.79,7.79,0,1,0,57.62,59,7.79,7.79,0,0,0,65.41,66.76Z"/><circle cx="65.41" cy="33.38" r="7.79"/><path d="M7.79,0a7.79,7.79,0,1,0,7.79,7.79A7.81,7.81,0,0,0,7.79,0Z"/><circle cx="7.79" cy="33.38" r="7.79"/><path d="M7.79,66.76A7.79,7.79,0,1,0,0,59,7.79,7.79,0,0,0,7.79,66.76Z"/><path d="M36.6,0a7.79,7.79,0,1,0,7.79,7.79A7.8,7.8,0,0,0,36.6,0Z"/></svg>