<svg id="Layer_1" data-name="Layer 1" xmlns="http://www.w3.org/2000/svg" xmlns:xlink="http://www.w3.org/1999/xlink" viewBox="0 0 180.2 148.98"><defs><style>.cls-1,.cls-4{fill:none;}.cls-2{fill:#231f20;}.cls-3{clip-path:url(#clip-path);}.cls-4{stroke:#231f20;stroke-miterlimit:10;stroke-width:2.8px;}</style><clipPath id="clip-path" transform="translate(47.45 57.21)"><path class="cls-1" d="M12.79,55.86c0-16.43,19.1-19.35,19.1-29.57,0-4.14-4-7.18-8.64-7.18-5.84,0-11.56,5.23-11.56,5.23L0,10.1A35.91,35.91,0,0,1,25.44,0C39.07,0,53.8,8.15,53.8,23.85,53.8,43.85,33,46.73,33,57.56v4.38H12.79Z"/></clipPath></defs><g id="Layer_2" data-name="Layer 2"><g id="Layer_1-2" data-name="Layer 1-2"><rect class="cls-2" x="60.15" y="130.73" width="19.48" height="18.25"/><g class="cls-3"><line class="cls-4" x1="155.35" y1="0.67" x2="87.84" y2="124.23"/><line class="cls-4" x1="163.23" y1="0.67" x2="95.72" y2="124.23"/><line class="cls-4" x1="147.48" y1="0.67" x2="79.97" y2="124.23"/><line class="cls-4" x1="171.1" y1="0.67" x2="103.59" y2="124.23"/><line class="cls-4" x1="178.97" y1="0.67" x2="111.46" y2="124.23"/><line class="cls-4" x1="139.6" y1="0.67" x2="72.09" y2="124.23"/><line class="cls-4" x1="131.73" y1="0.67" x2="64.22" y2="124.23"/><line class="cls-4" x1="123.86" y1="0.67" x2="56.35" y2="124.23"/><line class="cls-4" x1="115.98" y1="0.67" x2="48.47" y2="124.23"/><line class="cls-4" x1="108.11" y1="0.67" x2="40.6" y2="124.23"/><line class="cls-4" x1="100.24" y1="0.67" x2="32.72" y2="124.23"/><line class="cls-4" x1="92.36" y1="0.67" x2="24.85" y2="124.23"/><line class="cls-4" x1="84.49" y1="0.67" x2="16.98" y2="124.23"/><line class="cls-4" x1="76.61" y1="0.67" x2="9.1" y2="124.23"/><line class="cls-4" x1="68.74" y1="0.67" x2="1.23" y2="124.23"/></g></g></g></svg>