<svg id="Layer_1" data-name="Layer 1" xmlns="http://www.w3.org/2000/svg" viewBox="0 0 584.45 132.6"><polygon class="cls-1" points="99.17 0 33.06 0 0 57.26 33.06 114.52 99.17 0"/><polygon class="cls-1" points="110.09 46.71 107.69 42.54 55.69 132.6 60.5 132.6 110.09 46.71"/><polygon class="cls-1" points="105.34 38.48 102.95 34.33 46.21 132.6 51.01 132.6 105.34 38.48"/><polygon class="cls-1" points="114.85 54.95 112.43 50.76 65.18 132.6 70.03 132.6 114.85 54.95"/><polygon class="cls-1" points="100.61 30.28 98.22 26.14 36.75 132.6 41.53 132.6 100.61 30.28"/><polygon class="cls-1" points="95.88 22.09 93.57 18.09 27.45 132.6 32.07 132.6 95.88 22.09"/><polygon class="cls-1" points="124.33 71.36 121.96 67.27 84.25 132.6 88.97 132.6 124.33 71.36"/><polygon class="cls-1" points="119.62 63.22 117.19 59.01 74.71 132.6 79.56 132.6 119.62 63.22"/><path class="cls-1" d="M269.39,93.17V104H234V46.73h35V57.52H245.28V69.7h21.66V80.33H245.28V93.17Z"/><path class="cls-1" d="M336.1,93.66H313.29L309.86,104H297.68l20-57.23h14L351.8,104H339.53Zm-3.52-10.55-7.84-23.38-7.85,23.38Z"/><path class="cls-1" d="M508.42,93.17V104H473V46.73h35V57.52h-23.7V69.7H506V80.33H484.31V93.17Z"/><path class="cls-1" d="M560.74,84.09h-8.58V104H540.87V46.73h22.9a19,19,0,0,1,19,19,18.63,18.63,0,0,1-11,16.67L584.45,104H572.27Zm-8.58-9.89h11.61c4.25,0,7.76-3.76,7.76-8.5s-3.51-8.42-7.76-8.42H552.16Z"/><path class="cls-1" d="M159.68,85.07h12c0,.4.08.68.11,1a7.27,7.27,0,0,0,5.14,6.26,11.42,11.42,0,0,0,8.67-.23,9.12,9.12,0,0,0,3-2.13,4.63,4.63,0,0,0-1.19-7.39,46.07,46.07,0,0,0-7.2-2.51c-3.45-1.07-7-1.85-10.37-3.14-4.7-1.8-8.13-5-9-10.21-1.39-8.28,2-15.68,10.8-18.46a27.44,27.44,0,0,1,18.11.26c6.27,2.32,9.57,7.05,10.34,13.62.1.79.11,1.59.17,2.47H188.67a1,1,0,0,1-.13-.25c-.5-3.69-2.17-5.57-5.76-6.38a11.49,11.49,0,0,0-7.11.59c-2.49,1-3.68,3.25-3,5.51a4.59,4.59,0,0,0,3,3c2,.76,4.06,1.42,6.14,2,3.88,1,7.81,1.91,11.46,3.68,5.36,2.61,8.43,6.75,8.63,12.82.23,6.64-2.15,12-8,15.37-4.73,2.74-9.92,3.37-15.27,3a23.09,23.09,0,0,1-10.41-3.14,16.9,16.9,0,0,1-8.24-13c-.05-.35-.15-.7-.22-1Z"/><polygon class="cls-1" points="426.27 46.73 409.92 78.48 393.49 46.73 381.88 46.73 381.88 103.96 393.16 103.96 393.16 66.92 406.96 93.66 412.87 93.66 426.68 66.84 426.68 103.96 437.88 103.96 437.88 46.73 426.27 46.73"/></svg>